<?xml version="1.0" encoding="UTF-8" standalone="no"?>
<svg width="204px" height="40px" viewBox="0 0 204 40" version="1.1" xmlns="http://www.w3.org/2000/svg" xmlns:xlink="http://www.w3.org/1999/xlink" xmlns:sketch="http://www.bohemiancoding.com/sketch/ns">
    <!-- Generator: Sketch 3.2.2 (9983) - http://www.bohemiancoding.com/sketch -->
    <title>logo-horizontal-white</title>
    <desc>Created with Sketch.</desc>
    <defs></defs>
    <g id="Exportables" stroke="none" stroke-width="1" fill="none" fill-rule="evenodd" sketch:type="MSPage">
        <g id="logo-horizontal-white" sketch:type="MSArtboardGroup" fill="#FFFFFF">
            <g id="Imported-Layers" sketch:type="MSLayerGroup">
                <path d="M13.3752368,26.63325 L0.108568889,13.375 L13.3752368,0.11675 L17.7974178,4.536125 L8.95305587,13.375 L17.7974178,22.213875 L13.3752368,26.63325" id="Fill-1" sketch:type="MSShapeGroup"></path>
                <path d="M26.6419048,39.8915 L17.7974178,31.052625 L22.2197238,26.63325 L26.6419048,31.052625 L44.3307537,13.375 L39.9085727,8.955625 L44.3307537,4.536125 L53.1752406,13.375 L26.6419048,39.8915" id="Fill-2" sketch:type="MSShapeGroup"></path>
                <path d="M26.6419048,26.63325 L24.4307517,24.4235 L26.6419048,22.213875 L23.9728362,19.5465 L23.9728362,16.042375 L20.4664863,16.042375 L17.7974178,13.375 L15.5863898,15.58475 L13.3752368,13.375 L17.7974178,8.955625 L21.7616832,12.917375 L27.0998203,12.917375 L27.0998203,18.252125 L31.0640857,22.213875 L26.6419048,26.63325" id="Fill-3" sketch:type="MSShapeGroup"></path>
                <path d="M33.2752387,20.004125 L31.0640857,17.794375 L32.895873,15.963875 L32.895873,10.786125 L29.2324235,7.125 L24.051386,7.125 L22.2197238,8.955625 L20.0085708,6.745875 L22.7561892,4 L30.5276203,4 L36.0228571,9.49175 L36.0228571,17.25825 L33.2752387,20.004125" id="Fill-4" sketch:type="MSShapeGroup"></path>
                <path d="M78.0320127,12.04275 C80.030906,13.8705 81.0309156,16.41325 81.0309156,19.669125 C81.0309156,22.92575 80.0564222,25.503 78.1070603,27.401 C76.1580737,29.298875 73.1843117,30.247625 69.1861498,30.247625 L62.0197276,30.247625 L62.0197276,9.30075 L69.425927,9.30075 C73.164299,9.30075 76.0327441,10.214625 78.0320127,12.04275 L78.0320127,12.04275 Z M74.5987092,24.49375 C75.7483137,23.415125 76.3228032,21.847125 76.3228032,19.789125 C76.3228032,17.7315 75.7483137,16.148125 74.5987092,15.03925 C73.4492298,13.9305 71.6849854,13.37625 69.306226,13.37625 L66.6975708,13.37625 L66.6975708,26.112125 L69.6662044,26.112125 C71.8046863,26.112125 73.4492298,25.57275 74.5987092,24.49375 L74.5987092,24.49375 Z" id="Fill-5" sketch:type="MSShapeGroup"></path>
                <path d="M101.6909,9.30075 L101.6909,13.466125 L91.2559035,13.466125 L91.2559035,17.781375 L100.641484,17.781375 L100.641484,21.767125 L91.2559035,21.767125 L91.2559035,26.112125 L102.020984,26.112125 L102.020984,30.247625 L86.5780603,30.247625 L86.5780603,9.30075 L101.6909,9.30075" id="Fill-6" sketch:type="MSShapeGroup"></path>
                <path d="M117.314063,26.112125 C119.612521,26.112125 121.491839,25.203375 122.951265,23.385375 L125.949917,26.47175 C123.570783,29.149125 120.766879,30.487375 117.53883,30.487375 C114.310032,30.487375 111.65097,29.46875 109.562269,27.43075 C107.473194,25.393125 106.428781,22.821 106.428781,19.714125 C106.428781,16.60775 107.493206,14.015625 109.622432,11.937625 C111.751158,9.86 114.354685,8.821 117.433889,8.821 C120.871945,8.821 123.750647,10.129875 126.069869,12.74675 L123.161273,16.043375 C121.681584,14.2055 119.842667,13.2865 117.643647,13.2865 C115.884406,13.2865 114.379826,13.860625 113.130658,15.0095 C111.88099,16.158375 111.256594,17.706375 111.256594,19.654125 C111.256594,21.602375 111.846093,23.16575 113.025842,24.344 C114.20484,25.523 115.634622,26.112125 117.314063,26.112125" id="Fill-7" sketch:type="MSShapeGroup"></path>
                <path d="M148.319486,27.355875 C146.200392,29.423625 143.591611,30.4575 140.49302,30.4575 C137.394304,30.4575 134.785524,29.423625 132.666804,27.355875 C130.54771,25.288 129.488288,22.71625 129.488288,19.63925 C129.488288,16.563125 130.54771,13.9905 132.666804,11.92275 C134.785524,9.854875 137.394304,8.821 140.49302,8.821 C143.591611,8.821 146.200392,9.854875 148.319486,11.92275 C150.438331,13.9905 151.498128,16.563125 151.498128,19.63925 C151.498128,22.71625 150.438331,25.288 148.319486,27.355875 L148.319486,27.355875 Z M146.730228,19.654125 C146.730228,17.786375 146.130472,16.19325 144.931211,14.874625 C143.731825,13.555875 142.257265,12.896625 140.508155,12.896625 C138.758795,12.896625 137.28461,13.555875 136.085223,14.874625 C134.885712,16.19325 134.285957,17.786375 134.285957,19.654125 C134.285957,21.52275 134.885712,23.110875 136.085223,24.418875 C137.28461,25.72775 138.758795,26.382 140.508155,26.382 C142.257265,26.382 143.731825,25.72775 144.931211,24.418875 C146.130472,23.110875 146.730228,21.52275 146.730228,19.654125 L146.730228,19.654125 Z" id="Fill-8" sketch:type="MSShapeGroup"></path>
                <path d="M172.967876,12.04275 C174.966394,13.8705 175.966279,16.41325 175.966279,19.669125 C175.966279,22.92575 174.991785,25.503 173.042799,27.401 C171.093562,29.298875 168.1198,30.247625 164.121763,30.247625 L156.954966,30.247625 L156.954966,9.30075 L164.361665,9.30075 C168.099537,9.30075 170.968608,10.214625 172.967876,12.04275 L172.967876,12.04275 Z M169.534323,24.49375 C170.683677,23.415125 171.258542,21.847125 171.258542,19.789125 C171.258542,17.7315 170.683677,16.148125 169.534323,15.03925 C168.384468,13.9305 166.620599,13.37625 164.241839,13.37625 L161.632934,13.37625 L161.632934,26.112125 L164.601568,26.112125 C166.74055,26.112125 168.384468,25.57275 169.534323,24.49375 L169.534323,24.49375 Z" id="Fill-9" sketch:type="MSShapeGroup"></path>
                <path d="M196.626638,9.30075 L196.626638,13.466125 L186.191517,13.466125 L186.191517,17.781375 L195.577222,17.781375 L195.577222,21.767125 L186.191517,21.767125 L186.191517,26.112125 L196.956597,26.112125 L196.956597,30.247625 L181.513674,30.247625 L181.513674,9.30075 L196.626638,9.30075" id="Fill-10" sketch:type="MSShapeGroup"></path>
            </g>
        </g>
    </g>
</svg>
