<?xml version="1.0" encoding="UTF-8" standalone="no"?>
<svg width="250px" height="250px" viewBox="0 0 250 250" version="1.1" xmlns="http://www.w3.org/2000/svg" xmlns:xlink="http://www.w3.org/1999/xlink" xmlns:sketch="http://www.bohemiancoding.com/sketch/ns">
    <!-- Generator: Sketch 3.2.2 (9983) - http://www.bohemiancoding.com/sketch -->
    <title>webicon</title>
    <desc>Created with Sketch.</desc>
    <defs>
        <path id="path-1" d="M197.5,98.5 C197.5,152.9 153.4,197 99,197 C44.6,197 0.5,152.9 0.5,98.5 C0.5,44.1 44.6,0.1 99,0.1 C153.4,0.1 197.5,44.2 197.5,98.5"></path>
        <path id="path-3" d="M197.5,98.5 C197.5,152.9 153.4,197 99,197 C44.6,197 0.5,152.9 0.5,98.5 C0.5,44.1 44.6,0.1 99,0.1 C153.4,0.1 197.5,44.2 197.5,98.5"></path>
        <path id="path-5" d="M197.5,98.5 C197.5,152.9 153.4,197 99,197 C44.6,197 0.5,152.9 0.5,98.5 C0.5,44.1 44.6,0.1 99,0.1 C153.4,0.1 197.5,44.2 197.5,98.5"></path>
        <path id="path-7" d="M197.5,98.5 C197.5,152.9 153.4,197 99,197 C44.6,197 0.5,152.9 0.5,98.5 C0.5,44.1 44.6,0.1 99,0.1 C153.4,0.1 197.5,44.2 197.5,98.5"></path>
        <path id="path-9" d="M197.5,98.5 C197.5,152.9 153.4,197 99,197 C44.6,197 0.5,152.9 0.5,98.5 C0.5,44.1 44.6,0.1 99,0.1 C153.4,0.1 197.5,44.2 197.5,98.5"></path>
        <path id="path-11" d="M197.5,98.5 C197.5,152.9 153.4,197 99,197 C44.6,197 0.5,152.9 0.5,98.5 C0.5,44.1 44.6,0.1 99,0.1 C153.4,0.1 197.5,44.2 197.5,98.5"></path>
        <path id="path-13" d="M197.5,98.5 C197.5,152.9 153.4,197 99,197 C44.6,197 0.5,152.9 0.5,98.5 C0.5,44.1 44.6,0.1 99,0.1 C153.4,0.1 197.5,44.2 197.5,98.5"></path>
        <path id="path-15" d="M197.5,98.5 C197.5,152.9 153.4,197 99,197 C44.6,197 0.5,152.9 0.5,98.5 C0.5,44.1 44.6,0.1 99,0.1 C153.4,0.1 197.5,44.2 197.5,98.5"></path>
        <path id="path-17" d="M197.5,98.5 C197.5,152.9 153.4,197 99,197 C44.6,197 0.5,152.9 0.5,98.5 C0.5,44.1 44.6,0.1 99,0.1 C153.4,0.1 197.5,44.2 197.5,98.5"></path>
        <path id="path-19" d="M197.5,98.5 C197.5,152.9 153.4,197 99,197 C44.6,197 0.5,152.9 0.5,98.5 C0.5,44.1 44.6,0.1 99,0.1 C153.4,0.1 197.5,44.2 197.5,98.5"></path>
        <path id="path-21" d="M197.5,98.5 C197.5,152.9 153.4,197 99,197 C44.6,197 0.5,152.9 0.5,98.5 C0.5,44.1 44.6,0.1 99,0.1 C153.4,0.1 197.5,44.2 197.5,98.5"></path>
        <path id="path-23" d="M197.5,98.5 C197.5,152.9 153.4,197 99,197 C44.6,197 0.5,152.9 0.5,98.5 C0.5,44.1 44.6,0.1 99,0.1 C153.4,0.1 197.5,44.2 197.5,98.5"></path>
        <path id="path-25" d="M197.5,98.5 C197.5,152.9 153.4,197 99,197 C44.6,197 0.5,152.9 0.5,98.5 C0.5,44.1 44.6,0.1 99,0.1 C153.4,0.1 197.5,44.2 197.5,98.5"></path>
        <path id="path-27" d="M197.5,98.5 C197.5,152.9 153.4,197 99,197 C44.6,197 0.5,152.9 0.5,98.5 C0.5,44.1 44.6,0.1 99,0.1 C153.4,0.1 197.5,44.2 197.5,98.5"></path>
        <path id="path-29" d="M197.5,98.5 C197.5,152.9 153.4,197 99,197 C44.6,197 0.5,152.9 0.5,98.5 C0.5,44.1 44.6,0.1 99,0.1 C153.4,0.1 197.5,44.2 197.5,98.5"></path>
        <path id="path-31" d="M197.5,98.5 C197.5,152.9 153.4,197 99,197 C44.6,197 0.5,152.9 0.5,98.5 C0.5,44.1 44.6,0.1 99,0.1 C153.4,0.1 197.5,44.2 197.5,98.5"></path>
        <path id="path-33" d="M197.5,98.5 C197.5,152.9 153.4,197 99,197 C44.6,197 0.5,152.9 0.5,98.5 C0.5,44.1 44.6,0.1 99,0.1 C153.4,0.1 197.5,44.2 197.5,98.5"></path>
        <path id="path-35" d="M197.5,98.5 C197.5,152.9 153.4,197 99,197 C44.6,197 0.5,152.9 0.5,98.5 C0.5,44.1 44.6,0.1 99,0.1 C153.4,0.1 197.5,44.2 197.5,98.5"></path>
        <path id="path-37" d="M197.5,98.5 C197.5,152.9 153.4,197 99,197 C44.6,197 0.5,152.9 0.5,98.5 C0.5,44.1 44.6,0.1 99,0.1 C153.4,0.1 197.5,44.2 197.5,98.5"></path>
        <path id="path-39" d="M197.5,98.5 C197.5,152.9 153.4,197 99,197 C44.6,197 0.5,152.9 0.5,98.5 C0.5,44.1 44.6,0.1 99,0.1 C153.4,0.1 197.5,44.2 197.5,98.5"></path>
        <path id="path-41" d="M197.5,98.5 C197.5,152.9 153.4,197 99,197 C44.6,197 0.5,152.9 0.5,98.5 C0.5,44.1 44.6,0.1 99,0.1 C153.4,0.1 197.5,44.2 197.5,98.5"></path>
        <path id="path-43" d="M197.5,98.5 C197.5,152.9 153.4,197 99,197 C44.6,197 0.5,152.9 0.5,98.5 C0.5,44.1 44.6,0.1 99,0.1 C153.4,0.1 197.5,44.2 197.5,98.5"></path>
        <path id="path-45" d="M197.5,98.5 C197.5,152.9 153.4,197 99,197 C44.6,197 0.5,152.9 0.5,98.5 C0.5,44.1 44.6,0.1 99,0.1 C153.4,0.1 197.5,44.2 197.5,98.5"></path>
        <path id="path-47" d="M197.5,98.5 C197.5,152.9 153.4,197 99,197 C44.6,197 0.5,152.9 0.5,98.5 C0.5,44.1 44.6,0.1 99,0.1 C153.4,0.1 197.5,44.2 197.5,98.5"></path>
        <path id="path-49" d="M197.5,98.5 C197.5,152.9 153.4,197 99,197 C44.6,197 0.5,152.9 0.5,98.5 C0.5,44.1 44.6,0.1 99,0.1 C153.4,0.1 197.5,44.2 197.5,98.5"></path>
        <path id="path-51" d="M197.5,98.5 C197.5,152.9 153.4,197 99,197 C44.6,197 0.5,152.9 0.5,98.5 C0.5,44.1 44.6,0.1 99,0.1 C153.4,0.1 197.5,44.2 197.5,98.5"></path>
        <path id="path-53" d="M197.5,98.5 C197.5,152.9 153.4,197 99,197 C44.6,197 0.5,152.9 0.5,98.5 C0.5,44.1 44.6,0.1 99,0.1 C153.4,0.1 197.5,44.2 197.5,98.5"></path>
        <path id="path-55" d="M197.5,98.5 C197.5,152.9 153.4,197 99,197 C44.6,197 0.5,152.9 0.5,98.5 C0.5,44.1 44.6,0.1 99,0.1 C153.4,0.1 197.5,44.2 197.5,98.5"></path>
        <path id="path-57" d="M197.5,98.5 C197.5,152.9 153.4,197 99,197 C44.6,197 0.5,152.9 0.5,98.5 C0.5,44.1 44.6,0.1 99,0.1 C153.4,0.1 197.5,44.2 197.5,98.5"></path>
        <path id="path-59" d="M197.5,98.5 C197.5,152.9 153.4,197 99,197 C44.6,197 0.5,152.9 0.5,98.5 C0.5,44.1 44.6,0.1 99,0.1 C153.4,0.1 197.5,44.2 197.5,98.5"></path>
        <path id="path-61" d="M197.5,98.5 C197.5,152.9 153.4,197 99,197 C44.6,197 0.5,152.9 0.5,98.5 C0.5,44.1 44.6,0.1 99,0.1 C153.4,0.1 197.5,44.2 197.5,98.5"></path>
        <path id="path-63" d="M197.5,98.5 C197.5,152.9 153.4,197 99,197 C44.6,197 0.5,152.9 0.5,98.5 C0.5,44.1 44.6,0.1 99,0.1 C153.4,0.1 197.5,44.2 197.5,98.5"></path>
        <path id="path-65" d="M197.5,98.5 C197.5,152.9 153.4,197 99,197 C44.6,197 0.5,152.9 0.5,98.5 C0.5,44.1 44.6,0.1 99,0.1 C153.4,0.1 197.5,44.2 197.5,98.5"></path>
        <path id="path-67" d="M197.5,98.5 C197.5,152.9 153.4,197 99,197 C44.6,197 0.5,152.9 0.5,98.5 C0.5,44.1 44.6,0.1 99,0.1 C153.4,0.1 197.5,44.2 197.5,98.5"></path>
        <path id="path-69" d="M197.5,98.5 C197.5,152.9 153.4,197 99,197 C44.6,197 0.5,152.9 0.5,98.5 C0.5,44.1 44.6,0.1 99,0.1 C153.4,0.1 197.5,44.2 197.5,98.5"></path>
        <path id="path-71" d="M197.5,98.5 C197.5,152.9 153.4,197 99,197 C44.6,197 0.5,152.9 0.5,98.5 C0.5,44.1 44.6,0.1 99,0.1 C153.4,0.1 197.5,44.2 197.5,98.5"></path>
        <path id="path-73" d="M197.5,98.5 C197.5,152.9 153.4,197 99,197 C44.6,197 0.5,152.9 0.5,98.5 C0.5,44.1 44.6,0.1 99,0.1 C153.4,0.1 197.5,44.2 197.5,98.5"></path>
        <path id="path-75" d="M197.5,98.5 C197.5,152.9 153.4,197 99,197 C44.6,197 0.5,152.9 0.5,98.5 C0.5,44.1 44.6,0.1 99,0.1 C153.4,0.1 197.5,44.2 197.5,98.5"></path>
        <path id="path-77" d="M197.5,98.5 C197.5,152.9 153.4,197 99,197 C44.6,197 0.5,152.9 0.5,98.5 C0.5,44.1 44.6,0.1 99,0.1 C153.4,0.1 197.5,44.2 197.5,98.5"></path>
        <path id="path-79" d="M197.5,98.5 C197.5,152.9 153.4,197 99,197 C44.6,197 0.5,152.9 0.5,98.5 C0.5,44.1 44.6,0.1 99,0.1 C153.4,0.1 197.5,44.2 197.5,98.5"></path>
        <path id="path-81" d="M197.5,98.5 C197.5,152.9 153.4,197 99,197 C44.6,197 0.5,152.9 0.5,98.5 C0.5,44.1 44.6,0.1 99,0.1 C153.4,0.1 197.5,44.2 197.5,98.5"></path>
        <path id="path-83" d="M197.5,98.5 C197.5,152.9 153.4,197 99,197 C44.6,197 0.5,152.9 0.5,98.5 C0.5,44.1 44.6,0.1 99,0.1 C153.4,0.1 197.5,44.2 197.5,98.5"></path>
        <path id="path-85" d="M197.5,98.5 C197.5,152.9 153.4,197 99,197 C44.6,197 0.5,152.9 0.5,98.5 C0.5,44.1 44.6,0.1 99,0.1 C153.4,0.1 197.5,44.2 197.5,98.5"></path>
        <path id="path-87" d="M197.5,98.5 C197.5,152.9 153.4,197 99,197 C44.6,197 0.5,152.9 0.5,98.5 C0.5,44.1 44.6,0.1 99,0.1 C153.4,0.1 197.5,44.2 197.5,98.5"></path>
        <path id="path-89" d="M197.5,98.5 C197.5,152.9 153.4,197 99,197 C44.6,197 0.5,152.9 0.5,98.5 C0.5,44.1 44.6,0.1 99,0.1 C153.4,0.1 197.5,44.2 197.5,98.5"></path>
        <path id="path-91" d="M197.5,98.5 C197.5,152.9 153.4,197 99,197 C44.6,197 0.5,152.9 0.5,98.5 C0.5,44.1 44.6,0.1 99,0.1 C153.4,0.1 197.5,44.2 197.5,98.5"></path>
        <path id="path-93" d="M197.5,98.5 C197.5,152.9 153.4,197 99,197 C44.6,197 0.5,152.9 0.5,98.5 C0.5,44.1 44.6,0.1 99,0.1 C153.4,0.1 197.5,44.2 197.5,98.5"></path>
        <path id="path-95" d="M197.5,98.5 C197.5,152.9 153.4,197 99,197 C44.6,197 0.5,152.9 0.5,98.5 C0.5,44.1 44.6,0.1 99,0.1 C153.4,0.1 197.5,44.2 197.5,98.5"></path>
        <path id="path-97" d="M197.5,98.5 C197.5,152.9 153.4,197 99,197 C44.6,197 0.5,152.9 0.5,98.5 C0.5,44.1 44.6,0.1 99,0.1 C153.4,0.1 197.5,44.2 197.5,98.5"></path>
        <path id="path-99" d="M197.5,98.5 C197.5,152.9 153.4,197 99,197 C44.6,197 0.5,152.9 0.5,98.5 C0.5,44.1 44.6,0.1 99,0.1 C153.4,0.1 197.5,44.2 197.5,98.5"></path>
        <path id="path-101" d="M197.5,98.5 C197.5,152.9 153.4,197 99,197 C44.6,197 0.5,152.9 0.5,98.5 C0.5,44.1 44.6,0.1 99,0.1 C153.4,0.1 197.5,44.2 197.5,98.5"></path>
        <path id="path-103" d="M197.5,98.5 C197.5,152.9 153.4,197 99,197 C44.6,197 0.5,152.9 0.5,98.5 C0.5,44.1 44.6,0.1 99,0.1 C153.4,0.1 197.5,44.2 197.5,98.5"></path>
        <path id="path-105" d="M197.5,98.5 C197.5,152.9 153.4,197 99,197 C44.6,197 0.5,152.9 0.5,98.5 C0.5,44.1 44.6,0.1 99,0.1 C153.4,0.1 197.5,44.2 197.5,98.5"></path>
        <path id="path-107" d="M197.5,98.5 C197.5,152.9 153.4,197 99,197 C44.6,197 0.5,152.9 0.5,98.5 C0.5,44.1 44.6,0.1 99,0.1 C153.4,0.1 197.5,44.2 197.5,98.5"></path>
        <path id="path-109" d="M197.5,98.5 C197.5,152.9 153.4,197 99,197 C44.6,197 0.5,152.9 0.5,98.5 C0.5,44.1 44.6,0.1 99,0.1 C153.4,0.1 197.5,44.2 197.5,98.5"></path>
        <path id="path-111" d="M197.5,98.5 C197.5,152.9 153.4,197 99,197 C44.6,197 0.5,152.9 0.5,98.5 C0.5,44.1 44.6,0.1 99,0.1 C153.4,0.1 197.5,44.2 197.5,98.5"></path>
        <path id="path-113" d="M197.5,98.5 C197.5,152.9 153.4,197 99,197 C44.6,197 0.5,152.9 0.5,98.5 C0.5,44.1 44.6,0.1 99,0.1 C153.4,0.1 197.5,44.2 197.5,98.5"></path>
        <path id="path-115" d="M197.5,98.5 C197.5,152.9 153.4,197 99,197 C44.6,197 0.5,152.9 0.5,98.5 C0.5,44.1 44.6,0.1 99,0.1 C153.4,0.1 197.5,44.2 197.5,98.5"></path>
        <path id="path-117" d="M197.5,98.5 C197.5,152.9 153.4,197 99,197 C44.6,197 0.5,152.9 0.5,98.5 C0.5,44.1 44.6,0.1 99,0.1 C153.4,0.1 197.5,44.2 197.5,98.5"></path>
        <path id="path-119" d="M197.5,98.5 C197.5,152.9 153.4,197 99,197 C44.6,197 0.5,152.9 0.5,98.5 C0.5,44.1 44.6,0.1 99,0.1 C153.4,0.1 197.5,44.2 197.5,98.5"></path>
        <path id="path-121" d="M197.5,98.5 C197.5,152.9 153.4,197 99,197 C44.6,197 0.5,152.9 0.5,98.5 C0.5,44.1 44.6,0.1 99,0.1 C153.4,0.1 197.5,44.2 197.5,98.5"></path>
        <path id="path-123" d="M197.5,98.5 C197.5,152.9 153.4,197 99,197 C44.6,197 0.5,152.9 0.5,98.5 C0.5,44.1 44.6,0.1 99,0.1 C153.4,0.1 197.5,44.2 197.5,98.5"></path>
        <path id="path-125" d="M197.5,98.5 C197.5,152.9 153.4,197 99,197 C44.6,197 0.5,152.9 0.5,98.5 C0.5,44.1 44.6,0.1 99,0.1 C153.4,0.1 197.5,44.2 197.5,98.5"></path>
        <path id="path-127" d="M197.5,98.5 C197.5,152.9 153.4,197 99,197 C44.6,197 0.5,152.9 0.5,98.5 C0.5,44.1 44.6,0.1 99,0.1 C153.4,0.1 197.5,44.2 197.5,98.5"></path>
        <path id="path-129" d="M197.5,98.5 C197.5,152.9 153.4,197 99,197 C44.6,197 0.5,152.9 0.5,98.5 C0.5,44.1 44.6,0.1 99,0.1 C153.4,0.1 197.5,44.2 197.5,98.5"></path>
        <path id="path-131" d="M197.5,98.5 C197.5,152.9 153.4,197 99,197 C44.6,197 0.5,152.9 0.5,98.5 C0.5,44.1 44.6,0.1 99,0.1 C153.4,0.1 197.5,44.2 197.5,98.5"></path>
        <path id="path-133" d="M197.5,98.5 C197.5,152.9 153.4,197 99,197 C44.6,197 0.5,152.9 0.5,98.5 C0.5,44.1 44.6,0.1 99,0.1 C153.4,0.1 197.5,44.2 197.5,98.5"></path>
        <path id="path-135" d="M197.5,98.5 C197.5,152.9 153.4,197 99,197 C44.6,197 0.5,152.9 0.5,98.5 C0.5,44.1 44.6,0.1 99,0.1 C153.4,0.1 197.5,44.2 197.5,98.5"></path>
        <path id="path-137" d="M197.5,98.5 C197.5,152.9 153.4,197 99,197 C44.6,197 0.5,152.9 0.5,98.5 C0.5,44.1 44.6,0.1 99,0.1 C153.4,0.1 197.5,44.2 197.5,98.5"></path>
        <path id="path-139" d="M197.5,98.5 C197.5,152.9 153.4,197 99,197 C44.6,197 0.5,152.9 0.5,98.5 C0.5,44.1 44.6,0.1 99,0.1 C153.4,0.1 197.5,44.2 197.5,98.5"></path>
        <path id="path-141" d="M197.5,98.5 C197.5,152.9 153.4,197 99,197 C44.6,197 0.5,152.9 0.5,98.5 C0.5,44.1 44.6,0.1 99,0.1 C153.4,0.1 197.5,44.2 197.5,98.5"></path>
        <path id="path-143" d="M197.5,98.5 C197.5,152.9 153.4,197 99,197 C44.6,197 0.5,152.9 0.5,98.5 C0.5,44.1 44.6,0.1 99,0.1 C153.4,0.1 197.5,44.2 197.5,98.5"></path>
        <path id="path-145" d="M197.5,98.5 C197.5,152.9 153.4,197 99,197 C44.6,197 0.5,152.9 0.5,98.5 C0.5,44.1 44.6,0.1 99,0.1 C153.4,0.1 197.5,44.2 197.5,98.5"></path>
    </defs>
    <g id="Exportables" stroke="none" stroke-width="1" fill="none" fill-rule="evenodd" sketch:type="MSPage">
        <g id="webicon" sketch:type="MSArtboardGroup">
            <g id="The-Web" sketch:type="MSLayerGroup" transform="translate(26.000000, 27.000000)">
                <g id="Group">
                    <g id="Clipped">
                        <mask id="mask-2" sketch:name="SVGID_1_" fill="white">
                            <use xlink:href="#path-1"></use>
                        </mask>
                        <g id="SVGID_1_"></g>
                        <path d="M125.1,123.7 C124,131.2 123.5,138.8 123.5,146.6 C123.5,162.4 125.8,177.6 130.1,192 C130.4,191.9 130.7,191.8 131.1,191.7 L131.1,191.7 L131.2,191.7 L131.2,191.7 C132.1,191.4 133,191.1 133.8,190.7 C129.7,176.7 127.5,161.9 127.5,146.6 C127.5,139.1 128,131.7 129.1,124.4 C127.8,124.1 126.4,123.9 125.1,123.7 M108.2,121.8 C107.1,129.9 106.5,138.1 106.5,146.5 C106.5,163.6 108.9,180.2 113.5,195.9 C114.8,195.7 116.1,195.5 117.4,195.2 L117.4,195.2 C112.9,179.7 110.4,163.4 110.4,146.5 L110.4,146.5 C110.4,138.2 111,130 112.1,122 C110.9,122 109.6,121.9 108.2,121.8 M142.2,71.6 C135.5,84.1 130.5,97.6 127.3,111.9 C128.6,112.1 129.9,112.4 131.2,112.6 L131.2,112.6 C133.2,103.4 136.1,94.6 139.7,86.1 C141.5,81.8 143.5,77.6 145.7,73.4 C144.6,72.8 143.4,72.2 142.2,71.6 M127.4,63.1 C119.6,77.6 113.8,93.3 110.3,109.9 C111.6,110 113,110.1 114.3,110.2 L114.3,110.2 C117.7,94.3 123.3,79.2 130.8,65.2 C129.7,64.5 128.6,63.8 127.4,63.1 M171.8,32.2 C171.3,32.7 170.8,33.2 170.2,33.7 C162.4,41.5 155.4,50.2 149.3,59.4 L152.9,61.2 L152.9,61.2 C159.1,51.8 166.3,43 174.4,35.2 C174.3,35 174.1,34.8 174,34.7 L174,34.7 L174,34.7 C173.6,34.2 173.1,33.7 172.6,33.1 L172.6,33.1 L172.6,33.1 C172.1,32.6 171.9,32.4 171.8,32.2 M159.3,20.7 C150.9,29 143.3,38.1 136.7,47.9 C136,48.9 135.3,50 134.6,51.1 C135.7,51.8 136.8,52.5 138,53.2 L138,53.2 C144.7,42.9 152.4,33.3 161.1,24.6 C161.6,24.1 162,23.7 162.5,23.2 C161.9,22.7 161.2,22.2 160.6,21.6 L160.6,21.6 C160.3,21.3 159.9,21.1 159.6,20.8 L159.6,20.8 C159.4,20.8 159.4,20.8 159.3,20.7 L159.3,20.7" id="Shape" opacity="0" fill="#000000" sketch:type="MSShapeGroup" mask="url(#mask-2)"></path>
                    </g>
                    <g id="Clipped">
                        <mask id="mask-4" sketch:name="SVGID_1_" fill="white">
                            <use xlink:href="#path-3"></use>
                        </mask>
                        <g id="SVGID_1_"></g>
                        <path d="M112.2,122.1 L112.2,122.1 C111.1,130.1 110.5,138.3 110.5,146.6 L110.5,146.6 C110.5,163.5 112.9,179.9 117.5,195.3 C121.8,194.5 126,193.4 130.1,192 C125.8,177.6 123.5,162.3 123.5,146.6 L123.5,146.6 C123.5,138.8 124.1,131.2 125.1,123.7 C120.9,123 116.6,122.4 112.2,122.1 M130.8,65.2 L130.8,65.2 C123.3,79.2 117.7,94.3 114.3,110.2 L114.3,110.2 C118.7,110.6 123,111.1 127.2,111.8 L127.2,111.8 C130.4,97.6 135.4,84 142.1,71.5 C138.3,69.6 134.5,67.5 130.8,65.2 M162.4,23.2 L162.4,23.2 C161.9,23.6 161.5,24.1 161,24.6 C152.3,33.3 144.6,42.8 137.9,53.2 C141.6,55.5 145.4,57.6 149.3,59.6 L149.3,59.6 C155.4,50.3 162.4,41.7 170.2,33.9 C170.7,33.4 171.2,32.9 171.8,32.4 C171.7,32.3 171.6,32.2 171.5,32.1 L171.5,32.1 L171.5,32.1 C169,29.4 166.4,26.8 163.6,24.4 L163.6,24.4 C163.1,23.8 162.7,23.5 162.4,23.2" id="Shape" fill="#3AEC49" sketch:type="MSShapeGroup" mask="url(#mask-4)"></path>
                    </g>
                    <g id="Clipped">
                        <mask id="mask-6" sketch:name="SVGID_1_" fill="white">
                            <use xlink:href="#path-5"></use>
                        </mask>
                        <g id="SVGID_1_"></g>
                        <path d="M152.9,61.3 L152.9,61.3 C152.2,62.4 151.4,63.6 150.7,64.7 C164.6,71.4 179.6,76.1 195.4,78.6 L195.4,78.6 C195.2,77.4 194.9,76.3 194.6,75.1 L194.6,75.1 C194.6,75.1 194.6,75.1 194.6,75 L194.6,75 C194.6,74.8 194.5,74.6 194.5,74.4 C179.8,71.9 165.9,67.4 152.9,61.3 M119.9,53 C119,54 118,54.9 117.1,55.9 C120.4,58.4 123.9,60.8 127.4,63.1 L127.4,63.1 C128,61.9 128.7,60.8 129.3,59.6 C126.2,57.5 123,55.3 119.9,53 M126.6,45.5 C125.7,46.5 124.9,47.5 124,48.5 C126.7,50.5 129.5,52.5 132.4,54.3 L132.4,54.3 C133.1,53.2 133.8,52 134.5,50.9 C131.9,49.3 129.2,47.4 126.6,45.5 M87.7,21.4 C86.7,22.3 85.8,23.2 84.8,24.2 C89.1,29.7 93.8,35 98.7,39.9 C100.2,41.4 101.7,42.9 103.3,44.3 L103.3,44.3 C104.2,43.4 105.2,42.4 106.1,41.5 C104.5,40.1 103,38.6 101.5,37.1 C96.6,32.1 92,26.9 87.7,21.4 M95.2,14.8 C94.2,15.6 93.1,16.5 92.1,17.4 C96.3,22.8 100.8,28 105.7,32.8 C107.1,34.2 108.6,35.7 110.1,37.1 L110.1,37.1 C111,36.1 111.9,35.1 112.7,34.1 C111.3,32.8 109.9,31.4 108.5,30 C103.8,25.2 99.3,20.1 95.2,14.8 M75.2,3 C74.4,3.2 73.7,3.4 72.9,3.6 L72.9,3.6 C72.9,3.6 72.9,3.6 72.8,3.6 L72.8,3.6 C72.3,3.7 71.8,3.9 71.3,4 C72,5.2 72.7,6.3 73.3,7.4 L73.3,7.4 C74.3,6.5 75.3,5.5 76.3,4.6 C75.9,4.2 75.5,3.6 75.2,3" id="Shape" opacity="0" fill="#000000" sketch:type="MSShapeGroup" mask="url(#mask-6)"></path>
                    </g>
                    <g id="Clipped">
                        <mask id="mask-8" sketch:name="SVGID_1_" fill="white">
                            <use xlink:href="#path-7"></use>
                        </mask>
                        <g id="SVGID_1_"></g>
                        <path d="M147.7,69.9 C147,71.1 146.4,72.2 145.8,73.4 C161.7,81.1 178.9,86.4 197,88.9 C196.9,87.6 196.7,86.4 196.6,85.1 L196.6,85.1 L196.6,84.8 C179.2,82.3 162.8,77.2 147.7,69.9" id="Shape" opacity="0" fill="#000000" sketch:type="MSShapeGroup" mask="url(#mask-8)"></path>
                    </g>
                    <g id="Clipped">
                        <mask id="mask-10" sketch:name="SVGID_1_" fill="white">
                            <use xlink:href="#path-9"></use>
                        </mask>
                        <g id="SVGID_1_"></g>
                        <path d="M134.6,51 L134.6,51 C133.9,52.1 133.2,53.2 132.5,54.4 C133.6,55.1 134.7,55.8 135.9,56.5 L135.9,56.5 C136.6,55.4 137.3,54.2 138,53.1 C136.8,52.4 135.7,51.7 134.6,51 L134.6,51" id="Shape" opacity="0" fill="#000000" sketch:type="MSShapeGroup" mask="url(#mask-10)"></path>
                    </g>
                    <g id="Clipped">
                        <mask id="mask-12" sketch:name="SVGID_1_" fill="white">
                            <use xlink:href="#path-11"></use>
                        </mask>
                        <g id="SVGID_1_"></g>
                        <path d="M149.3,59.5 L149.3,59.5 C148.6,60.6 147.9,61.8 147.1,62.9 C148.3,63.5 149.5,64.1 150.7,64.7 L150.7,64.7 C151.4,63.6 152.1,62.4 152.9,61.3 C151.7,60.7 150.5,60.1 149.3,59.5 L149.3,59.5" id="Shape" opacity="0" fill="#000000" sketch:type="MSShapeGroup" mask="url(#mask-12)"></path>
                    </g>
                    <g id="Clipped">
                        <mask id="mask-14" sketch:name="SVGID_1_" fill="white">
                            <use xlink:href="#path-13"></use>
                        </mask>
                        <g id="SVGID_1_"></g>
                        <path d="M129.4,59.6 L129.4,59.6 C128.7,60.8 128.1,61.9 127.5,63.1 C128.6,63.8 129.8,64.5 130.9,65.2 L130.9,65.2 C131.5,64 132.2,62.9 132.8,61.7 C131.6,61 130.5,60.3 129.4,59.6" id="Shape" opacity="0" fill="#000000" sketch:type="MSShapeGroup" mask="url(#mask-14)"></path>
                    </g>
                    <g id="Clipped">
                        <mask id="mask-16" sketch:name="SVGID_1_" fill="white">
                            <use xlink:href="#path-15"></use>
                        </mask>
                        <g id="SVGID_1_"></g>
                        <path d="M144.1,68.1 C143.4,69.3 142.8,70.4 142.2,71.6 C143.4,72.2 144.6,72.8 145.8,73.4 C146.4,72.2 147.1,71.1 147.7,69.9 L144.1,68.1" id="Shape" opacity="0" fill="#000000" sketch:type="MSShapeGroup" mask="url(#mask-16)"></path>
                    </g>
                    <g id="Clipped">
                        <mask id="mask-18" sketch:name="SVGID_1_" fill="white">
                            <use xlink:href="#path-17"></use>
                        </mask>
                        <g id="SVGID_1_"></g>
                        <path d="M137.9,53.1 C137.2,54.2 136.5,55.3 135.8,56.5 C139.5,58.8 143.3,60.9 147.2,62.9 L147.2,62.9 C147.9,61.8 148.6,60.6 149.4,59.5 C145.4,57.5 141.6,55.4 137.9,53.1 L137.9,53.1" id="Shape" opacity="0" fill="#000000" sketch:type="MSShapeGroup" mask="url(#mask-18)"></path>
                    </g>
                    <g id="Clipped">
                        <mask id="mask-20" sketch:name="SVGID_1_" fill="white">
                            <use xlink:href="#path-19"></use>
                        </mask>
                        <g id="SVGID_1_"></g>
                        <path d="M132.8,61.7 L132.8,61.7 C132.1,62.9 131.5,64 130.9,65.2 C134.6,67.5 138.4,69.6 142.2,71.6 C142.8,70.4 143.5,69.3 144.1,68.1 C140.2,66.1 136.5,64 132.8,61.7" id="Shape" opacity="0" fill="#000000" sketch:type="MSShapeGroup" mask="url(#mask-20)"></path>
                    </g>
                    <g id="Clipped">
                        <mask id="mask-22" sketch:name="SVGID_1_" fill="white">
                            <use xlink:href="#path-21"></use>
                        </mask>
                        <g id="SVGID_1_"></g>
                        <path d="M124,48.6 C122.7,50.1 121.3,51.6 119.9,53 C123,55.3 126.1,57.5 129.3,59.6 C130.4,60.3 131.6,61 132.7,61.7 C136.4,64 140.2,66.1 144,68.1 C145.2,68.7 146.4,69.3 147.6,69.9 C162.8,77.2 179.2,82.3 196.4,84.8 C196.1,82.7 195.8,80.7 195.3,78.7 L195.3,78.7 C195.3,78.7 195.3,78.7 195.3,78.6 C179.6,76.1 164.6,71.4 150.6,64.7 L150.6,64.7 L147,62.9 L147,62.9 C143.1,60.9 139.3,58.8 135.6,56.5 L135.6,56.5 C134.5,55.8 133.3,55.1 132.2,54.4 L132.2,54.4 C129.6,52.5 126.8,50.6 124,48.6 L124,48.6 M92.1,17.4 C90.6,18.7 89.1,20 87.6,21.4 C91.9,26.9 96.5,32.1 101.4,37 C102.9,38.5 104.4,40 106,41.4 L106,41.4 C107.4,40 108.7,38.5 110.1,37 C108.6,35.6 107.1,34.2 105.7,32.7 C100.9,27.9 96.4,22.8 92.1,17.4 L92.1,17.4 M79.3,2.1 C78.7,2.2 78.1,2.3 77.6,2.5 L77.6,2.5 C77.6,2.5 77.6,2.5 77.5,2.5 L77.5,2.5 C77.5,2.5 77.5,2.5 77.4,2.5 L77.4,2.5 C77.1,2.6 76.8,2.6 76.5,2.7 L76.5,2.7 C76.5,2.7 76.5,2.7 76.4,2.7 L76.4,2.7 C76.1,2.8 75.8,2.8 75.6,2.9 C75.9,3.5 76.3,4.1 76.7,4.7 L76.7,4.7 C77.2,3.8 78.2,3 79.3,2.1" id="Shape" fill="#7AB8F3" sketch:type="MSShapeGroup" mask="url(#mask-22)"></path>
                    </g>
                    <g id="Clipped">
                        <mask id="mask-24" sketch:name="SVGID_1_" fill="white">
                            <use xlink:href="#path-23"></use>
                        </mask>
                        <g id="SVGID_1_"></g>
                        <path d="M18,138.9 C15.7,140.2 13.4,141.6 11.1,143 C11.2,143.1 11.3,143.3 11.3,143.4 L11.3,143.4 C11.3,143.4 11.3,143.4 11.3,143.5 L11.3,143.5 L11.3,143.5 L11.3,143.5 C11.3,143.5 11.3,143.5 11.3,143.6 L11.3,143.6 C11.3,143.6 11.3,143.6 11.3,143.7 L11.3,143.7 C11.6,144.3 12,144.9 12.3,145.6 L12.3,145.6 C12.3,145.7 12.4,145.8 12.4,145.8 C14.1,144.7 15.8,143.7 17.5,142.7 C18.1,141.9 18.1,140.4 18,138.9 M67.9,120.5 C57.6,122.5 47.7,125.4 38.2,129.2 C38.1,130.6 38.1,132.1 38.1,133.6 C47.8,129.6 58,126.5 68.6,124.5 C68.3,123.1 68.1,121.8 67.9,120.5 M129.7,120.4 C129.5,121.7 129.3,123 129.1,124.4 C149.3,128.2 168.2,135.9 185,146.6 L185,146.6 C185.4,145.9 185.7,145.3 186.1,144.6 L186.1,144.6 L186.1,144.6 C186.3,144.2 186.5,143.8 186.7,143.3 C169.7,132.1 150.4,124.3 129.7,120.4 M99,117.5 C93.8,117.5 88.7,117.7 83.7,118.2 C83.9,119.5 84.1,120.8 84.3,122.2 L84.3,122.2 C89.1,121.8 94,121.5 99,121.5 C102.1,121.5 105.2,121.6 108.2,121.8 L108.2,121.8 C108.4,120.5 108.6,119.1 108.8,117.8 C105.6,117.6 102.3,117.5 99,117.5" id="Shape" opacity="0" fill="#000000" sketch:type="MSShapeGroup" mask="url(#mask-24)"></path>
                    </g>
                    <g id="Clipped">
                        <mask id="mask-26" sketch:name="SVGID_1_" fill="white">
                            <use xlink:href="#path-25"></use>
                        </mask>
                        <g id="SVGID_1_"></g>
                        <path d="M108.8,117.8 L108.8,117.8 C108.6,119.1 108.4,120.4 108.2,121.8 C109.5,121.9 110.9,122 112.2,122.1 C112.4,120.8 112.6,119.5 112.8,118.1 C111.5,118 110.2,117.9 108.8,117.8" id="Shape" opacity="0" fill="#000000" sketch:type="MSShapeGroup" mask="url(#mask-26)"></path>
                    </g>
                    <g id="Clipped">
                        <mask id="mask-28" sketch:name="SVGID_1_" fill="white">
                            <use xlink:href="#path-27"></use>
                        </mask>
                        <g id="SVGID_1_"></g>
                        <path d="M125.7,119.7 C125.5,121 125.3,122.3 125.1,123.7 C126.4,123.9 127.7,124.1 129,124.4 C129.2,123.1 129.4,121.8 129.6,120.4 C128.4,120.2 127.1,119.9 125.7,119.7" id="Shape" opacity="0" fill="#000000" sketch:type="MSShapeGroup" mask="url(#mask-28)"></path>
                    </g>
                    <g id="Clipped">
                        <mask id="mask-30" sketch:name="SVGID_1_" fill="white">
                            <use xlink:href="#path-29"></use>
                        </mask>
                        <g id="SVGID_1_"></g>
                        <path d="M112.8,118.1 C112.6,119.4 112.4,120.7 112.2,122.1 C116.6,122.5 120.9,123 125.1,123.7 C125.3,122.4 125.5,121.1 125.7,119.7 C121.5,119 117.2,118.5 112.8,118.1" id="Shape" opacity="0" fill="#000000" sketch:type="MSShapeGroup" mask="url(#mask-30)"></path>
                    </g>
                    <g id="Clipped">
                        <mask id="mask-32" sketch:name="SVGID_1_" fill="white">
                            <use xlink:href="#path-31"></use>
                        </mask>
                        <g id="SVGID_1_"></g>
                        <path d="M131.2,112.6 L131.2,112.6 C130.9,113.9 130.6,115.2 130.4,116.5 C151.5,120.5 171.1,128.4 188.6,139.4 C189.2,138.2 189.7,136.9 190.2,135.7 C172.5,124.6 152.5,116.6 131.2,112.6 M99,109.5 C93.3,109.5 87.8,109.8 82.2,110.3 C82.5,111.6 82.7,112.9 83,114.2 L83,114.2 C88.3,113.7 93.6,113.4 99,113.4 C102.5,113.4 106,113.5 109.5,113.7 L109.5,113.7 C109.7,112.4 110,111.1 110.3,109.7 C106.6,109.7 102.8,109.5 99,109.5 L99,109.5 L99,109.5" id="Shape" opacity="0" fill="#000000" sketch:type="MSShapeGroup" mask="url(#mask-32)"></path>
                    </g>
                    <g id="Clipped">
                        <mask id="mask-34" sketch:name="SVGID_1_" fill="white">
                            <use xlink:href="#path-33"></use>
                        </mask>
                        <g id="SVGID_1_"></g>
                        <path d="M18.1,129.7 C14.6,131.6 11.2,133.6 7.8,135.7 C7.8,135.8 7.9,135.9 7.9,136 L7.9,136 C8.4,137.1 8.8,138.2 9.3,139.3 C12.1,137.5 15,135.8 17.9,134.2 L17.9,134.2 C18,132.8 18,131.2 18.1,129.7 M66.4,112.6 C56.9,114.4 47.7,117 38.8,120.4 C38.7,121.9 38.5,123.3 38.4,124.8 C47.6,121.2 57.3,118.4 67.2,116.5 C66.9,115.2 66.6,113.9 66.4,112.6" id="Shape" opacity="0" fill="#000000" sketch:type="MSShapeGroup" mask="url(#mask-34)"></path>
                    </g>
                    <g id="Clipped">
                        <mask id="mask-36" sketch:name="SVGID_1_" fill="white">
                            <use xlink:href="#path-35"></use>
                        </mask>
                        <g id="SVGID_1_"></g>
                        <path d="M110.3,109.9 L110.3,109.9 C110,111.2 109.8,112.5 109.5,113.9 C110.8,114 112.2,114.1 113.5,114.2 L113.5,114.2 C113.8,112.9 114,111.6 114.3,110.3 C113,110.1 111.7,110 110.3,109.9 L110.3,109.9" id="Shape" opacity="0" fill="#000000" sketch:type="MSShapeGroup" mask="url(#mask-36)"></path>
                    </g>
                    <g id="Clipped">
                        <mask id="mask-38" sketch:name="SVGID_1_" fill="white">
                            <use xlink:href="#path-37"></use>
                        </mask>
                        <g id="SVGID_1_"></g>
                        <path d="M127.3,111.9 L127.3,111.9 C127,113.2 126.7,114.5 126.5,115.8 C127.8,116 129.1,116.2 130.4,116.5 L130.4,116.5 C130.7,115.2 130.9,113.9 131.2,112.6 C129.9,112.3 128.6,112.1 127.3,111.9 L127.3,111.9" id="Shape" opacity="0" fill="#000000" sketch:type="MSShapeGroup" mask="url(#mask-38)"></path>
                    </g>
                    <g id="Clipped">
                        <mask id="mask-40" sketch:name="SVGID_1_" fill="white">
                            <use xlink:href="#path-39"></use>
                        </mask>
                        <g id="SVGID_1_"></g>
                        <path d="M114.3,110.2 C114,111.5 113.8,112.8 113.5,114.1 C117.9,114.5 122.2,115 126.4,115.7 C126.7,114.4 126.9,113.1 127.2,111.8 C123,111.1 118.7,110.6 114.3,110.2" id="Shape" opacity="0" fill="#000000" sketch:type="MSShapeGroup" mask="url(#mask-40)"></path>
                    </g>
                    <g id="Clipped">
                        <mask id="mask-42" sketch:name="SVGID_1_" fill="white">
                            <use xlink:href="#path-41"></use>
                        </mask>
                        <g id="SVGID_1_"></g>
                        <path d="M18,134.3 C15.1,135.9 12.2,137.6 9.4,139.4 C9.5,139.6 9.6,139.8 9.7,140 L9.7,140 C10.2,141 10.6,142 11.1,142.9 C13.4,141.5 15.7,140.1 18,138.8 L18,135.5 L18,135.5 C18,135.1 18,134.7 18,134.3 M67.2,116.6 L67.2,116.6 C57.3,118.5 47.6,121.3 38.4,124.9 L38.4,124.9 C38.3,126.4 38.2,127.8 38.2,129.3 C47.7,125.5 57.6,122.6 67.9,120.6 C67.6,119.2 67.4,117.9 67.2,116.6 M99,113.5 C93.6,113.5 88.3,113.8 83,114.3 L83,114.3 C83.2,115.6 83.5,116.9 83.7,118.3 L83.7,118.3 C88.7,117.8 93.8,117.6 99,117.6 C102.3,117.6 105.6,117.7 108.8,117.9 C110.1,118 111.5,118.1 112.8,118.2 C117.2,118.6 121.5,119.1 125.7,119.8 C127,120 128.3,120.2 129.6,120.5 C150.3,124.4 169.6,132.2 186.8,143.1 C186.9,142.9 187,142.8 187,142.6 L187,142.6 C187.5,141.7 187.9,140.7 188.4,139.8 C188.4,139.7 188.5,139.6 188.5,139.5 C171,128.5 151.4,120.6 130.3,116.6 L130.3,116.6 C129,116.4 127.7,116.1 126.4,115.9 L126.4,115.9 C122.1,115.2 117.8,114.7 113.5,114.3 L113.5,114.3 C112.2,114.2 110.8,114.1 109.5,114 L109.5,114 C106,113.6 102.5,113.5 99,113.5" id="Shape" fill="#E46969" sketch:type="MSShapeGroup" mask="url(#mask-42)"></path>
                    </g>
                    <g id="Clipped">
                        <mask id="mask-44" sketch:name="SVGID_1_" fill="white">
                            <use xlink:href="#path-43"></use>
                        </mask>
                        <g id="SVGID_1_"></g>
                        <path d="M103.3,44.3 L103.3,44.3 C96.4,51.1 88.9,57.3 80.8,62.7 C76.8,65.4 72.7,67.9 68.5,70.2 C69.1,71.4 69.7,72.6 70.2,73.8 L70.2,73.8 C83.5,66.5 95.6,57.5 106.3,46.9 C105.2,46.1 104.2,45.2 103.3,44.3" id="Shape" opacity="0" fill="#000000" sketch:type="MSShapeGroup" mask="url(#mask-44)"></path>
                    </g>
                    <g id="Clipped">
                        <mask id="mask-46" sketch:name="SVGID_1_" fill="white">
                            <use xlink:href="#path-45"></use>
                        </mask>
                        <g id="SVGID_1_"></g>
                        <path d="M21.4,101.2 C14.6,102.3 7.7,103.1 0.7,103.4 C0.7,103.4 0.7,103.4 0.7,103.5 L0.7,103.5 C0.7,104.3 0.8,105.1 0.9,105.9 L0.9,105.9 C0.9,105.9 0.9,105.9 0.9,106 L0.9,106 C0.9,106 0.9,106 0.9,106.1 L0.9,106.1 C0.9,106.5 1,106.8 1,107.2 C7.6,106.9 14.2,106.2 20.6,105.2 L20.6,105.2 C20.8,104 21.1,102.6 21.4,101.2 M59.6,90.1 C54.2,92.4 48.7,94.4 43,96.1 C42.6,97.6 42.2,99.1 41.9,100.6 C48.4,98.7 54.8,96.4 61,93.8 C60.6,92.6 60.1,91.3 59.6,90.1 M25,86.3 C17.2,87.9 9.2,89 1,89.4 C0.9,90.1 0.9,90.8 0.8,91.5 L0.8,91.5 C0.8,91.5 0.8,91.5 0.8,91.6 L0.8,91.6 C0.8,92.1 0.7,92.7 0.7,93.2 L0.7,93.2 C0.7,93.2 0.7,93.2 0.7,93.3 L0.7,93.3 C8.6,92.9 16.3,92 23.8,90.5 L23.8,90.5 C24.2,89.2 24.6,87.7 25,86.3 M54,77.2 C52.1,78 50.2,78.7 48.3,79.5 C47.7,81.1 47.1,82.8 46.5,84.4 C49.6,83.3 52.7,82.1 55.7,80.8 C55.2,79.6 54.6,78.4 54,77.2 M113.9,53.4 L113.9,53.4 C102.2,65.1 88.8,75.2 74.1,83.1 C74.6,84.4 75.1,85.6 75.5,86.9 L75.5,86.9 C90.9,78.7 104.9,68.2 117.1,55.9 C116.1,55.1 115,54.3 113.9,53.4" id="Shape" opacity="0" fill="#000000" sketch:type="MSShapeGroup" mask="url(#mask-46)"></path>
                    </g>
                    <g id="Clipped">
                        <mask id="mask-48" sketch:name="SVGID_1_" fill="white">
                            <use xlink:href="#path-47"></use>
                        </mask>
                        <g id="SVGID_1_"></g>
                        <path d="M106.1,41.5 L106.1,41.5 C105.2,42.5 104.2,43.4 103.3,44.3 C104.3,45.2 105.3,46.1 106.3,47 L106.3,47 C106.5,46.8 106.7,46.6 106.9,46.4 C107.6,45.7 108.4,44.9 109.1,44.2 C108,43.3 107.1,42.4 106.1,41.5" id="Shape" opacity="0" fill="#000000" sketch:type="MSShapeGroup" mask="url(#mask-48)"></path>
                    </g>
                    <g id="Clipped">
                        <mask id="mask-50" sketch:name="SVGID_1_" fill="white">
                            <use xlink:href="#path-49"></use>
                        </mask>
                        <g id="SVGID_1_"></g>
                        <path d="M116.7,50.6 C115.8,51.6 114.8,52.5 113.9,53.5 C115,54.3 116,55.2 117.1,56 C118,55 119,54.1 119.9,53.1 C118.9,52.2 117.8,51.4 116.7,50.6" id="Shape" opacity="0" fill="#000000" sketch:type="MSShapeGroup" mask="url(#mask-50)"></path>
                    </g>
                    <g id="Clipped">
                        <mask id="mask-52" sketch:name="SVGID_1_" fill="white">
                            <use xlink:href="#path-51"></use>
                        </mask>
                        <g id="SVGID_1_"></g>
                        <path d="M144.8,11.4 C138.9,22.8 131.7,33.4 123.5,43.1 C124.6,43.9 125.6,44.7 126.7,45.5 L126.7,45.5 C130.8,40.7 134.6,35.6 138.2,30.4 C141.9,24.9 145.3,19.2 148.4,13.3 C148.3,13.2 148.1,13.1 148,13.1 L148,13.1 L148,13.1 C147.2,12.7 146.5,12.2 145.7,11.8 L145.7,11.8 C145.2,11.6 145,11.5 144.8,11.4 M131.9,5.7 C126.5,15.8 120.1,25.3 112.8,34 C113.8,34.9 114.8,35.8 115.8,36.7 L115.8,36.7 C123.5,27.7 130.2,17.7 135.8,7.1 L135.8,7.1 C135.8,7.1 135.8,7.1 135.7,7.1 L135.7,7.1 C135.7,7.1 135.7,7.1 135.6,7.1 L135.6,7.1 C135.6,7.1 135.6,7.1 135.5,7.1 L135.5,7.1 C135.5,7.1 135.5,7.1 135.4,7.1 L135.4,7.1 C135.4,7.1 135.4,7.1 135.3,7.1 L135.3,7.1 C135.3,7.1 135.3,7.1 135.2,7.1 L135.2,7.1 C135.2,7.1 135.2,7.1 135.1,7.1 L135.1,7.1 C135.1,7.1 135.1,7.1 135,7.1 L135,7.1 C134.4,6.9 133.8,6.6 133.1,6.4 L133.1,6.4 C133.1,6.4 133.1,6.4 133,6.4 L133,6.4 C132.4,5.9 132.1,5.8 131.9,5.7" id="Shape" opacity="0" fill="#000000" sketch:type="MSShapeGroup" mask="url(#mask-52)"></path>
                    </g>
                    <g id="Clipped">
                        <mask id="mask-54" sketch:name="SVGID_1_" fill="white">
                            <use xlink:href="#path-53"></use>
                        </mask>
                        <g id="SVGID_1_"></g>
                        <path d="M112.8,34 L112.8,34 C111.9,35 111.1,36 110.2,37 C111.2,37.9 112.2,38.8 113.2,39.7 L113.2,39.7 C114.1,38.7 115,37.7 115.8,36.7 C114.8,35.8 113.8,34.9 112.8,34 L112.8,34" id="Shape" opacity="0" fill="#000000" sketch:type="MSShapeGroup" mask="url(#mask-54)"></path>
                    </g>
                    <g id="Clipped">
                        <mask id="mask-56" sketch:name="SVGID_1_" fill="white">
                            <use xlink:href="#path-55"></use>
                        </mask>
                        <g id="SVGID_1_"></g>
                        <path d="M123.5,43.1 C122.6,44.1 121.8,45.1 120.9,46.1 C122,46.9 123,47.7 124.1,48.5 L124.1,48.5 C125,47.5 125.9,46.5 126.7,45.5 C125.6,44.7 124.5,43.9 123.5,43.1 L123.5,43.1" id="Shape" opacity="0" fill="#000000" sketch:type="MSShapeGroup" mask="url(#mask-56)"></path>
                    </g>
                    <g id="Clipped">
                        <mask id="mask-58" sketch:name="SVGID_1_" fill="white">
                            <use xlink:href="#path-57"></use>
                        </mask>
                        <g id="SVGID_1_"></g>
                        <path d="M110.2,37.1 L110.2,37.1 C108.9,38.6 107.5,40.1 106.1,41.5 C107.1,42.4 108.1,43.3 109.1,44.2 L109.1,44.2 C110.5,42.8 111.8,41.3 113.2,39.8 C112.1,38.9 111.1,38 110.2,37.1" id="Shape" opacity="0" fill="#000000" sketch:type="MSShapeGroup" mask="url(#mask-58)"></path>
                    </g>
                    <g id="Clipped">
                        <mask id="mask-60" sketch:name="SVGID_1_" fill="white">
                            <use xlink:href="#path-59"></use>
                        </mask>
                        <g id="SVGID_1_"></g>
                        <path d="M120.8,46.1 C119.5,47.6 118.1,49.1 116.7,50.5 C117.8,51.3 118.8,52.1 119.9,52.9 C121.3,51.4 122.6,50 124,48.5 C122.9,47.8 121.9,47 120.8,46.1 L120.8,46.1" id="Shape" opacity="0" fill="#000000" sketch:type="MSShapeGroup" mask="url(#mask-60)"></path>
                    </g>
                    <g id="Clipped">
                        <mask id="mask-62" sketch:name="SVGID_1_" fill="white">
                            <use xlink:href="#path-61"></use>
                        </mask>
                        <g id="SVGID_1_"></g>
                        <path d="M23.8,90.6 C16.3,92.1 8.6,93 0.7,93.4 C0.6,95.1 0.6,96.7 0.6,98.4 L0.6,98.4 C0.6,98.4 0.6,98.4 0.6,98.5 L0.6,98.5 L0.6,98.5 L0.6,98.5 C0.6,100 0.6,101.4 0.7,102.8 C7.7,102.5 14.6,101.8 21.4,100.6 L21.4,100.6 C22.1,97.6 22.9,94.1 23.8,90.6 M55.7,80.9 L55.7,80.9 C52.7,82.2 49.6,83.4 46.5,84.5 L46.5,84.5 C45.2,88.3 44,92.2 43,96.2 C48.7,94.5 54.2,92.5 59.6,90.2 C58.4,87 57.1,83.9 55.7,80.9 M135.7,7.2 C130.1,17.8 123.4,27.7 115.7,36.8 L115.7,36.8 C114.8,37.8 114,38.8 113.1,39.8 L113.1,39.8 C111.8,41.3 110.4,42.8 109,44.2 L109,44.2 C108.3,45 107.5,45.7 106.8,46.4 C106.6,46.6 106.4,46.8 106.2,47 L106.2,47 C95.5,57.6 83.4,66.6 70.1,73.9 C70.8,75.5 71.6,77.2 72.3,78.8 C72.9,80.2 73.5,81.7 74.1,83.1 L74.1,83.1 C88.8,75.2 102.2,65.1 113.9,53.4 L113.9,53.4 C114.8,52.5 115.8,51.5 116.7,50.5 C118.1,49 119.4,47.6 120.8,46.1 C121.7,45.1 122.6,44.1 123.4,43.1 C131.6,33.4 138.8,22.8 144.7,11.4 C143.4,10.7 142.1,10 140.7,9.4 L140.7,9.4 C139.1,8.6 137.4,7.8 135.7,7.2" id="Shape" fill="#E46969" sketch:type="MSShapeGroup" mask="url(#mask-62)"></path>
                    </g>
                    <g id="Clipped">
                        <mask id="mask-64" sketch:name="SVGID_1_" fill="white">
                            <use xlink:href="#path-63"></use>
                        </mask>
                        <g id="SVGID_1_"></g>
                        <path d="M57.7,75.6 C56.5,76.2 55.3,76.7 54,77.2 L54,77.2 C55.3,76.7 56.5,76.2 57.7,75.6 L57.7,75.6 M53.5,67.6 C52.8,69.1 52.1,70.6 51.4,72.1 C52.3,73.8 53.2,75.5 54,77.2 L54,77.2 C55.2,76.7 56.5,76.1 57.7,75.6 C56.4,72.9 55,70.3 53.5,67.6" id="Shape" opacity="0" fill="#000000" sketch:type="MSShapeGroup" mask="url(#mask-64)"></path>
                    </g>
                    <g id="Clipped">
                        <mask id="mask-66" sketch:name="SVGID_1_" fill="white">
                            <use xlink:href="#path-65"></use>
                        </mask>
                        <g id="SVGID_1_"></g>
                        <path d="M57.7,75.6 C56.5,76.2 55.3,76.7 54,77.2 L54,77.2 C55.3,76.7 56.5,76.2 57.7,75.6 L57.7,75.6 M57.7,75.6 L57.7,75.6 C56.5,76.2 55.3,76.7 54,77.2 C54.6,78.4 55.2,79.6 55.7,80.8 L55.7,80.8 C56.9,80.3 58.2,79.7 59.4,79.2 C58.9,78 58.3,76.8 57.7,75.6" id="Shape" opacity="0" fill="#000000" sketch:type="MSShapeGroup" mask="url(#mask-66)"></path>
                    </g>
                    <g id="Clipped">
                        <mask id="mask-68" sketch:name="SVGID_1_" fill="white">
                            <use xlink:href="#path-67"></use>
                        </mask>
                        <g id="SVGID_1_"></g>
                        <path d="M72.4,123.7 C71.1,123.9 69.8,124.2 68.5,124.4 C69.5,131.6 70,139 70,146.5 C70,161.8 67.8,176.5 63.8,190.5 C65,191 66.2,191.4 67.4,191.8 L67.4,191.8 L67.5,191.8 L67.5,191.8 L67.5,191.8 C71.7,177.4 73.9,162.2 73.9,146.5 C74,138.8 73.5,131.2 72.4,123.7 M64.7,92.2 C63.5,92.7 62.3,93.2 61.1,93.8 L61,93.9 C63.2,100 65,106.3 66.4,112.7 L66.4,112.7 C67.7,112.4 69,112.2 70.3,112 C68.8,105.2 66.9,98.6 64.7,92.2" id="Shape" opacity="0" fill="#000000" sketch:type="MSShapeGroup" mask="url(#mask-68)"></path>
                    </g>
                    <g id="Clipped">
                        <mask id="mask-70" sketch:name="SVGID_1_" fill="white">
                            <use xlink:href="#path-69"></use>
                        </mask>
                        <g id="SVGID_1_"></g>
                        <path d="M71.8,119.8 C70.5,120 69.2,120.3 67.9,120.5 C68.1,121.8 68.3,123.1 68.5,124.5 C69.8,124.2 71.1,124 72.4,123.8 C72.2,122.4 72,121.1 71.8,119.8 M70.3,111.9 L70.3,111.9 C69,112.1 67.7,112.4 66.4,112.6 C66.7,113.9 67,115.2 67.2,116.5 C68.5,116.3 69.8,116 71.1,115.8 C70.8,114.5 70.6,113.2 70.3,111.9" id="Shape" opacity="0" fill="#000000" sketch:type="MSShapeGroup" mask="url(#mask-70)"></path>
                    </g>
                    <g id="Clipped">
                        <mask id="mask-72" sketch:name="SVGID_1_" fill="white">
                            <use xlink:href="#path-71"></use>
                        </mask>
                        <g id="SVGID_1_"></g>
                        <path d="M71.1,115.8 C69.8,116 68.5,116.3 67.2,116.5 C67.5,117.8 67.7,119.1 67.9,120.4 C69.2,120.1 70.5,119.9 71.8,119.7 C71.6,118.5 71.3,117.2 71.1,115.8" id="Shape" opacity="0" fill="#000000" sketch:type="MSShapeGroup" mask="url(#mask-72)"></path>
                    </g>
                    <g id="Clipped">
                        <mask id="mask-74" sketch:name="SVGID_1_" fill="white">
                            <use xlink:href="#path-73"></use>
                        </mask>
                        <g id="SVGID_1_"></g>
                        <path d="M63.3,88.5 C62.1,89 60.9,89.6 59.6,90.1 C60.1,91.3 60.5,92.6 61,93.9 L61.1,93.8 C62.3,93.3 63.5,92.8 64.7,92.2 C64.2,91 63.8,89.7 63.3,88.5" id="Shape" opacity="0" fill="#000000" sketch:type="MSShapeGroup" mask="url(#mask-74)"></path>
                    </g>
                    <g id="Clipped">
                        <mask id="mask-76" sketch:name="SVGID_1_" fill="white">
                            <use xlink:href="#path-75"></use>
                        </mask>
                        <g id="SVGID_1_"></g>
                        <path d="M60.2,55.3 C59.4,56.6 58.7,57.9 57.9,59.2 C60.4,63.4 62.7,67.7 64.9,72.1 L64.9,72.1 C66.1,71.5 67.3,70.9 68.4,70.2 C65.9,65.1 63.2,60.1 60.2,55.3 M26.5,31.9 C25.7,32.7 25,33.6 24.3,34.4 L24.3,34.4 C24.2,34.5 24,34.7 23.9,34.9 C29.3,40.3 34.3,46.1 38.9,52.3 L38.9,52.3 C39.6,51 40.3,49.7 41,48.5 C36.5,42.7 31.7,37.2 26.5,31.9 L26.5,31.9" id="Shape" opacity="0" fill="#000000" sketch:type="MSShapeGroup" mask="url(#mask-76)"></path>
                    </g>
                    <g id="Clipped">
                        <mask id="mask-78" sketch:name="SVGID_1_" fill="white">
                            <use xlink:href="#path-77"></use>
                        </mask>
                        <g id="SVGID_1_"></g>
                        <path d="M68.4,70.3 C67.2,70.9 66.1,71.6 64.9,72.2 L64.9,72.2 C66.1,71.5 67.3,70.9 68.4,70.3 L68.4,70.3 M68.4,70.3 L68.4,70.3 C69,71.5 69.6,72.7 70.1,73.9 L70.1,73.9 C69.6,72.7 69,71.5 68.4,70.3 M68.4,70.3 L68.4,70.3 C67.2,70.9 66.1,71.6 64.9,72.2 C65.5,73.4 66.1,74.6 66.6,75.8 L66.6,75.8 C67.8,75.2 69,74.6 70.1,73.9 C69.6,72.7 69,71.5 68.4,70.3 L68.4,70.3" id="Shape" opacity="0" fill="#000000" sketch:type="MSShapeGroup" mask="url(#mask-78)"></path>
                    </g>
                    <g id="Clipped">
                        <mask id="mask-80" sketch:name="SVGID_1_" fill="white">
                            <use xlink:href="#path-79"></use>
                        </mask>
                        <g id="SVGID_1_"></g>
                        <path d="M75.5,86.9 L75.5,86.9 C74.3,87.5 73.1,88.2 71.9,88.8 C74.5,95.9 76.6,103.3 78.2,110.8 L78.2,110.8 C79.5,110.6 80.9,110.5 82.2,110.4 C80.5,102.3 78.3,94.5 75.5,86.9" id="Shape" opacity="0" fill="#000000" sketch:type="MSShapeGroup" mask="url(#mask-80)"></path>
                    </g>
                    <g id="Clipped">
                        <mask id="mask-82" sketch:name="SVGID_1_" fill="white">
                            <use xlink:href="#path-81"></use>
                        </mask>
                        <g id="SVGID_1_"></g>
                        <path d="M84.3,122.2 L84.3,122.2 C83,122.3 81.6,122.5 80.3,122.6 C81.4,130.4 82,138.4 82,146.5 L82,146.5 C82,163 79.6,179 75.3,194.1 C75.4,194.1 75.6,194.2 75.7,194.2 L75.7,194.2 L75.8,194.2 L75.8,194.2 C76.9,194.5 78,194.7 79.1,194.9 C83.6,179.5 85.9,163.3 85.9,146.4 C86,138.3 85.4,130.2 84.3,122.2" id="Shape" opacity="0" fill="#000000" sketch:type="MSShapeGroup" mask="url(#mask-82)"></path>
                    </g>
                    <g id="Clipped">
                        <mask id="mask-84" sketch:name="SVGID_1_" fill="white">
                            <use xlink:href="#path-83"></use>
                        </mask>
                        <g id="SVGID_1_"></g>
                        <path d="M82.2,110.3 L82.2,110.3 C80.9,110.4 79.5,110.6 78.2,110.7 C78.5,112 78.7,113.3 79,114.6 L79,114.6 C80.3,114.4 81.7,114.3 83,114.2 C82.8,113 82.5,111.7 82.2,110.3 L82.2,110.3" id="Shape" opacity="0" fill="#000000" sketch:type="MSShapeGroup" mask="url(#mask-84)"></path>
                    </g>
                    <g id="Clipped">
                        <mask id="mask-86" sketch:name="SVGID_1_" fill="white">
                            <use xlink:href="#path-85"></use>
                        </mask>
                        <g id="SVGID_1_"></g>
                        <path d="M83.7,118.2 L83.7,118.2 C82.4,118.3 81,118.5 79.7,118.6 C79.9,119.9 80.1,121.2 80.3,122.6 L80.3,122.6 C81.6,122.4 83,122.3 84.3,122.2 C84.1,120.9 83.9,119.6 83.7,118.2 L83.7,118.2" id="Shape" opacity="0" fill="#000000" sketch:type="MSShapeGroup" mask="url(#mask-86)"></path>
                    </g>
                    <g id="Clipped">
                        <mask id="mask-88" sketch:name="SVGID_1_" fill="white">
                            <use xlink:href="#path-87"></use>
                        </mask>
                        <g id="SVGID_1_"></g>
                        <path d="M83,114.3 C81.7,114.4 80.3,114.6 79,114.7 C79.2,116 79.5,117.3 79.7,118.6 C81,118.4 82.4,118.3 83.7,118.2 C83.5,116.9 83.3,115.6 83,114.3" id="Shape" opacity="0" fill="#000000" sketch:type="MSShapeGroup" mask="url(#mask-88)"></path>
                    </g>
                    <g id="Clipped">
                        <mask id="mask-90" sketch:name="SVGID_1_" fill="white">
                            <use xlink:href="#path-89"></use>
                        </mask>
                        <g id="SVGID_1_"></g>
                        <path d="M74.1,83.1 L74.1,83.1 C74.6,84.4 75.1,85.6 75.5,86.9 L75.5,86.9 C75,85.6 74.6,84.4 74.1,83.1 M74.1,83.1 L74.1,83.1 C72.9,83.7 71.7,84.4 70.5,85 C71,86.2 71.5,87.5 71.9,88.8 L71.9,88.8 C73.1,88.2 74.3,87.6 75.5,86.9 C75,85.6 74.6,84.4 74.1,83.1 L74.1,83.1" id="Shape" opacity="0" fill="#000000" sketch:type="MSShapeGroup" mask="url(#mask-90)"></path>
                    </g>
                    <g id="Clipped">
                        <mask id="mask-92" sketch:name="SVGID_1_" fill="white">
                            <use xlink:href="#path-91"></use>
                        </mask>
                        <g id="SVGID_1_"></g>
                        <path d="M35.1,23.6 C34.9,23.8 34.7,23.9 34.6,24.1 L34.6,24.1 C34.3,24.3 34.1,24.5 33.9,24.8 L33.9,24.8 L33.9,24.8 L33.9,24.8 L33.8,24.9 L33.8,24.9 C33.4,25.3 32.9,25.7 32.5,26.1 L32.6,26.2 C37.3,30.9 41.7,35.8 45.8,41 L45.8,41 C46.6,39.8 47.3,38.6 48.1,37.5 C43.8,32.7 39.6,28.1 35.1,23.6" id="Shape" opacity="0" fill="#000000" sketch:type="MSShapeGroup" mask="url(#mask-92)"></path>
                    </g>
                    <g id="Clipped">
                        <mask id="mask-94" sketch:name="SVGID_1_" fill="white">
                            <use xlink:href="#path-93"></use>
                        </mask>
                        <g id="SVGID_1_"></g>
                        <path d="M70.2,73.9 C69,74.5 67.9,75.2 66.7,75.8 C68.1,78.8 69.4,81.9 70.6,85 L70.6,85 C71.8,84.4 73,83.8 74.2,83.1 C73.6,81.6 73,80.2 72.4,78.8 C71.6,77.2 70.9,75.5 70.2,73.9 L70.2,73.9" id="Shape" opacity="0" fill="#000000" sketch:type="MSShapeGroup" mask="url(#mask-94)"></path>
                    </g>
                    <g id="Clipped">
                        <mask id="mask-96" sketch:name="SVGID_1_" fill="white">
                            <use xlink:href="#path-95"></use>
                        </mask>
                        <g id="SVGID_1_"></g>
                        <path d="M59.4,79.2 L59.4,79.2 C58.2,79.8 57,80.3 55.7,80.8 C57.1,83.8 58.4,86.9 59.6,90 C60.8,89.5 62.1,88.9 63.3,88.4 C62.1,85.4 60.8,82.3 59.4,79.2" id="Shape" opacity="0" fill="#000000" sketch:type="MSShapeGroup" mask="url(#mask-96)"></path>
                    </g>
                    <g id="Clipped">
                        <mask id="mask-98" sketch:name="SVGID_1_" fill="white">
                            <use xlink:href="#path-97"></use>
                        </mask>
                        <g id="SVGID_1_"></g>
                        <path d="M57.9,59.2 C56.4,61.9 54.9,64.7 53.5,67.6 C55,70.2 56.4,72.9 57.7,75.6 C58.3,76.8 58.9,78 59.4,79.2 C60.8,82.2 62.1,85.3 63.3,88.4 C63.8,89.6 64.2,90.9 64.7,92.2 C67,98.6 68.9,105.2 70.3,111.9 C70.6,113.2 70.9,114.5 71.1,115.8 C71.4,117.1 71.6,118.4 71.8,119.7 C72,121 72.2,122.3 72.4,123.7 C73.4,131.1 74,138.8 74,146.5 L74,146.5 C74,162.2 71.8,177.4 67.6,191.8 L67.6,191.8 C69.4,192.4 71.3,193 73.1,193.5 L73.1,193.5 L73.2,193.5 L73.2,193.5 L73.2,193.5 L73.3,193.5 L73.3,193.5 C73.9,193.6 74.4,193.8 75,193.9 C79.4,178.8 81.7,162.8 81.7,146.3 L81.7,146.3 C81.7,138.2 81.1,130.2 80,122.4 L80,122.4 C79.8,121.1 79.6,119.8 79.4,118.4 L79.4,118.4 C79.2,117.1 78.9,115.8 78.7,114.5 L78.7,114.5 C78.5,113.2 78.2,111.9 77.9,110.6 L77.9,110.6 C76.3,103.1 74.2,95.7 71.6,88.6 L71.6,88.6 C71.1,87.3 70.7,86.1 70.2,84.8 L70.2,84.8 C69,81.7 67.7,78.6 66.3,75.6 L66.3,75.6 C65.7,74.4 65.2,73.2 64.6,72 L64.6,72 C62.7,67.7 60.4,63.4 57.9,59.2 L57.9,59.2 M32.1,26.3 C31.7,26.6 31.4,27 31,27.3 L31,27.3 C29.5,28.7 28,30.2 26.6,31.8 L26.7,31.9 C31.9,37.1 36.7,42.6 41.1,48.4 L41.1,48.4 C42.5,45.9 44,43.5 45.5,41.1 C41.3,36 36.9,31 32.1,26.3 L32.1,26.3" id="Shape" fill="#3AEC49" sketch:type="MSShapeGroup" mask="url(#mask-98)"></path>
                    </g>
                    <g id="Clipped">
                        <mask id="mask-100" sketch:name="SVGID_1_" fill="white">
                            <use xlink:href="#path-99"></use>
                        </mask>
                        <g id="SVGID_1_"></g>
                        <path d="M73.2,7.5 L73.2,7.5 C63.8,16.4 55.3,26.3 48,37.1 C47.9,37.3 47.8,37.4 47.7,37.6 C48.6,38.7 49.4,39.8 50.3,40.9 L50.3,40.9 C56.7,31.1 64.1,22.1 72.4,13.9 C73.4,12.9 74.4,11.9 75.4,11 C74.6,9.8 73.9,8.7 73.2,7.5 M87.1,0.8 C86.6,0.9 86.1,0.9 85.7,1 C85.8,1.2 86,1.4 86.1,1.6 L86.1,1.6 C86.4,1.4 86.7,1.1 87.1,0.8 M108.1,0.5 C102.8,3.9 97.6,7.6 92.8,11.6 C93.6,12.7 94.4,13.7 95.2,14.8 L95.2,14.8 C98.9,11.8 102.8,8.9 106.8,6.2 C109.3,4.5 111.9,2.9 114.5,1.3 C114.4,1.3 114.2,1.3 114.1,1.2 L114.1,1.2 L114.1,1.2 L114.1,1.2 L114.1,1.2 L114,1.2 L114,1.2 C112.8,1 111.6,0.9 110.4,0.7 L110.4,0.7 C110.4,0.7 110.4,0.7 110.3,0.7 L110.3,0.7 L110.3,0.7 C108.9,0.6 108.5,0.5 108.1,0.5" id="Shape" opacity="0" fill="#000000" sketch:type="MSShapeGroup" mask="url(#mask-100)"></path>
                    </g>
                    <g id="Clipped">
                        <mask id="mask-102" sketch:name="SVGID_1_" fill="white">
                            <use xlink:href="#path-101"></use>
                        </mask>
                        <g id="SVGID_1_"></g>
                        <path d="M82.3,21 C81.8,21.5 81.3,22 80.9,22.4 C72.1,31.2 64.4,40.9 57.8,51.5 C58.6,52.7 59.4,54 60.2,55.3 L60.2,55.3 C67.1,43.9 75.3,33.4 84.8,24.2 C83.9,23.1 83.1,22.1 82.3,21" id="Shape" opacity="0" fill="#000000" sketch:type="MSShapeGroup" mask="url(#mask-102)"></path>
                    </g>
                    <g id="Clipped">
                        <mask id="mask-104" sketch:name="SVGID_1_" fill="white">
                            <use xlink:href="#path-103"></use>
                        </mask>
                        <g id="SVGID_1_"></g>
                        <path d="M76.2,4.8 L76.2,4.8 C75.2,5.7 74.2,6.6 73.2,7.6 C73.9,8.8 74.6,9.9 75.4,11.1 C76.4,10.2 77.4,9.2 78.4,8.3 C77.6,7.1 76.9,5.9 76.2,4.8 M85.6,1 C85.4,1 85.2,1.1 85,1.1 L85,1.1 C83.9,1.3 82.9,1.4 81.8,1.6 L81.8,1.6 L81.5,1.6 C82,2.5 82.5,3.3 83.1,4.1 L83.1,4.1 C84.1,3.2 85.2,2.4 86.2,1.5 C85.9,1.4 85.8,1.2 85.6,1 L85.6,1" id="Shape" opacity="0" fill="#000000" sketch:type="MSShapeGroup" mask="url(#mask-104)"></path>
                    </g>
                    <g id="Clipped">
                        <mask id="mask-106" sketch:name="SVGID_1_" fill="white">
                            <use xlink:href="#path-105"></use>
                        </mask>
                        <g id="SVGID_1_"></g>
                        <path d="M85.2,18.2 C84.2,19.1 83.2,20 82.3,21 C83.1,22.1 83.9,23.1 84.7,24.2 C85.7,23.3 86.6,22.3 87.6,21.4 C86.8,20.3 86,19.3 85.2,18.2 M92.8,11.6 C91.8,12.4 90.7,13.3 89.7,14.2 C90.5,15.3 91.3,16.3 92.1,17.4 L92.1,17.4 C93.1,16.5 94.1,15.7 95.2,14.8 C94.4,13.7 93.6,12.7 92.8,11.6 L92.8,11.6" id="Shape" opacity="0" fill="#000000" sketch:type="MSShapeGroup" mask="url(#mask-106)"></path>
                    </g>
                    <g id="Clipped">
                        <mask id="mask-108" sketch:name="SVGID_1_" fill="white">
                            <use xlink:href="#path-107"></use>
                        </mask>
                        <g id="SVGID_1_"></g>
                        <path d="M81.4,1.7 C80.7,1.8 80,2 79.3,2.1 L79.3,2.1 C78.3,3 77.3,3.9 76.2,4.8 C76.9,6 77.6,7.1 78.3,8.3 C79.8,6.9 81.3,5.6 82.9,4.3 C82.4,3.4 81.9,2.5 81.4,1.7 L81.4,1.7" id="Shape" opacity="0" fill="#000000" sketch:type="MSShapeGroup" mask="url(#mask-108)"></path>
                    </g>
                    <g id="Clipped">
                        <mask id="mask-110" sketch:name="SVGID_1_" fill="white">
                            <use xlink:href="#path-109"></use>
                        </mask>
                        <g id="SVGID_1_"></g>
                        <path d="M89.7,14.2 C88.2,15.5 86.7,16.8 85.2,18.2 C86,19.3 86.8,20.3 87.6,21.4 C89.1,20 90.6,18.7 92.1,17.4 C91.3,16.3 90.5,15.3 89.7,14.2 L89.7,14.2" id="Shape" opacity="0" fill="#000000" sketch:type="MSShapeGroup" mask="url(#mask-110)"></path>
                    </g>
                    <g id="Clipped">
                        <mask id="mask-112" sketch:name="SVGID_1_" fill="white">
                            <use xlink:href="#path-111"></use>
                        </mask>
                        <g id="SVGID_1_"></g>
                        <path d="M47.7,37.6 L47.7,37.6 C46.9,38.8 46.1,39.9 45.4,41.1 C46.3,42.2 47.1,43.3 48,44.5 L48,44.5 C48.8,43.3 49.5,42.1 50.3,40.9 C49.5,39.8 48.6,38.7 47.7,37.6 L47.7,37.6" id="Shape" opacity="0" fill="#000000" sketch:type="MSShapeGroup" mask="url(#mask-112)"></path>
                    </g>
                    <g id="Clipped">
                        <mask id="mask-114" sketch:name="SVGID_1_" fill="white">
                            <use xlink:href="#path-113"></use>
                        </mask>
                        <g id="SVGID_1_"></g>
                        <path d="M57.8,51.5 C57,52.8 56.3,54 55.5,55.3 C56.3,56.6 57.1,57.9 57.9,59.2 L57.9,59.2 C58.6,57.9 59.4,56.6 60.2,55.3 C59.4,54 58.6,52.8 57.8,51.5 L57.8,51.5" id="Shape" opacity="0" fill="#000000" sketch:type="MSShapeGroup" mask="url(#mask-114)"></path>
                    </g>
                    <g id="Clipped">
                        <mask id="mask-116" sketch:name="SVGID_1_" fill="white">
                            <use xlink:href="#path-115"></use>
                        </mask>
                        <g id="SVGID_1_"></g>
                        <path d="M38.9,52.3 L38.9,52.3 C33.1,63 28.4,74.4 25,86.3 C26.5,86 28,85.7 29.5,85.3 L29.5,85.3 C32.6,75.1 36.7,65.3 41.5,56 C40.6,54.7 39.8,53.5 38.9,52.3" id="Shape" opacity="0" fill="#000000" sketch:type="MSShapeGroup" mask="url(#mask-116)"></path>
                    </g>
                    <g id="Clipped">
                        <mask id="mask-118" sketch:name="SVGID_1_" fill="white">
                            <use xlink:href="#path-117"></use>
                        </mask>
                        <g id="SVGID_1_"></g>
                        <path d="M49,67.8 C46.9,72.2 45.1,76.7 43.4,81.3 C45.1,80.7 46.7,80.2 48.3,79.5 L48.3,79.5 C48.9,77.9 49.5,76.4 50.2,74.8 C50.6,73.9 51,73 51.4,72.1 C50.6,70.7 49.8,69.2 49,67.8" id="Shape" opacity="0" fill="#000000" sketch:type="MSShapeGroup" mask="url(#mask-118)"></path>
                    </g>
                    <g id="Clipped">
                        <mask id="mask-120" sketch:name="SVGID_1_" fill="white">
                            <use xlink:href="#path-119"></use>
                        </mask>
                        <g id="SVGID_1_"></g>
                        <path d="M29.5,85.3 C28,85.7 26.5,86 25,86.3 L25,86.3 C24.6,87.7 24.2,89.2 23.8,90.6 C25.3,90.3 26.7,90 28.2,89.7 L28.2,89.7 C28.6,88.2 29,86.7 29.5,85.3 M48.4,79.5 C46.8,80.1 45.1,80.7 43.5,81.3 L43.5,81.3 C42.9,82.9 42.4,84.5 41.9,86 C43.5,85.5 45.1,85 46.7,84.4 L46.7,84.4 C47.1,82.8 47.7,81.1 48.4,79.5" id="Shape" opacity="0" fill="#000000" sketch:type="MSShapeGroup" mask="url(#mask-120)"></path>
                    </g>
                    <g id="Clipped">
                        <mask id="mask-122" sketch:name="SVGID_1_" fill="white">
                            <use xlink:href="#path-121"></use>
                        </mask>
                        <g id="SVGID_1_"></g>
                        <path d="M22.1,141.2 C20.8,141.9 19.5,142.7 18.2,143.4 C18.4,147.7 18.7,152 19.2,156.2 C20.6,158.2 22.2,160.1 23.8,162 L23.8,162 L23.8,162 C23.9,162.1 24,162.2 24.1,162.3 C23,155.5 22.3,148.4 22.1,141.2 M38,133.6 C36.7,134.2 35.3,134.7 34,135.3 L34,135.5 C34,149.8 35.9,163.7 39.4,176.9 C41.1,178.2 42.8,179.4 44.5,180.6 L44.5,180.6 C40.2,166.3 37.9,151.2 37.9,135.5 C38,134.9 38,134.2 38,133.6 M24.8,104.7 C23.4,105 22,105.2 20.6,105.4 L20.6,105.4 C19.2,113.3 18.4,121.5 18.1,129.7 C19.5,129 20.8,128.3 22.2,127.6 L22.2,127.6 C22.5,119.8 23.4,112.2 24.8,104.7 M41.9,100.6 C40.5,101 39,101.4 37.5,101.8 C36.1,108.4 35.1,115.1 34.5,122 C35.9,121.4 37.3,120.9 38.7,120.4 L38.7,120.4 C39.4,113.7 40.4,107.1 41.9,100.6" id="Shape" opacity="0" fill="#000000" sketch:type="MSShapeGroup" mask="url(#mask-122)"></path>
                    </g>
                    <g id="Clipped">
                        <mask id="mask-124" sketch:name="SVGID_1_" fill="white">
                            <use xlink:href="#path-123"></use>
                        </mask>
                        <g id="SVGID_1_"></g>
                        <path d="M22.2,127.6 C20.8,128.3 19.5,129 18.1,129.7 L18.1,129.7 C18.1,131.2 18,132.8 18,134.3 C19.3,133.6 20.7,132.9 22,132.2 L22,132.2 C22.1,130.6 22.1,129.1 22.2,127.6 M38.7,120.4 C37.3,120.9 35.9,121.5 34.5,122 L34.5,122 C34.4,123.5 34.3,125 34.2,126.5 C35.6,125.9 36.9,125.4 38.3,124.8 L38.3,124.8 C38.5,123.3 38.6,121.9 38.7,120.4" id="Shape" opacity="0" fill="#000000" sketch:type="MSShapeGroup" mask="url(#mask-124)"></path>
                    </g>
                    <g id="Clipped">
                        <mask id="mask-126" sketch:name="SVGID_1_" fill="white">
                            <use xlink:href="#path-125"></use>
                        </mask>
                        <g id="SVGID_1_"></g>
                        <path d="M22,136.7 C20.7,137.4 19.3,138.1 18,138.9 C18,140.4 18.1,141.9 18.1,143.4 C19.4,142.6 20.7,141.9 22,141.2 L22,136.7 M38.1,129.2 C36.7,129.7 35.4,130.3 34,130.9 C34,132.4 33.9,133.8 33.9,135.3 C35.2,134.7 36.6,134.1 37.9,133.6 C38,132.1 38.1,130.7 38.1,129.2" id="Shape" opacity="0" fill="#000000" sketch:type="MSShapeGroup" mask="url(#mask-126)"></path>
                    </g>
                    <g id="Clipped">
                        <mask id="mask-128" sketch:name="SVGID_1_" fill="white">
                            <use xlink:href="#path-127"></use>
                        </mask>
                        <g id="SVGID_1_"></g>
                        <path d="M38.4,124.8 C37,125.3 35.7,125.9 34.3,126.5 L34.3,126.5 C34.2,128 34.2,129.4 34.1,130.9 C35.4,130.3 36.8,129.8 38.2,129.2 C38.2,127.7 38.3,126.3 38.4,124.8" id="Shape" opacity="0" fill="#000000" sketch:type="MSShapeGroup" mask="url(#mask-128)"></path>
                    </g>
                    <g id="Clipped">
                        <mask id="mask-130" sketch:name="SVGID_1_" fill="white">
                            <use xlink:href="#path-129"></use>
                        </mask>
                        <g id="SVGID_1_"></g>
                        <path d="M22,132.2 C20.6,132.9 19.3,133.6 18,134.3 L18,134.3 L18,135.5 L18,138.8 C19.3,138.1 20.6,137.3 22,136.6 L22,135.4 L22,132.2" id="Shape" opacity="0" fill="#000000" sketch:type="MSShapeGroup" mask="url(#mask-130)"></path>
                    </g>
                    <g id="Clipped">
                        <mask id="mask-132" sketch:name="SVGID_1_" fill="white">
                            <use xlink:href="#path-131"></use>
                        </mask>
                        <g id="SVGID_1_"></g>
                        <path d="M25.6,100.4 C24.2,100.7 22.8,100.9 21.4,101.2 L21.4,101.2 C21.1,102.6 20.9,104 20.6,105.4 C22,105.2 23.4,104.9 24.8,104.7 C25,103.2 25.3,101.8 25.6,100.4 M43,96.1 C41.5,96.6 40,97 38.5,97.4 C38.1,98.9 37.8,100.3 37.5,101.8 C39,101.4 40.4,101 41.9,100.6 C42.3,99.1 42.6,97.6 43,96.1" id="Shape" opacity="0" fill="#000000" sketch:type="MSShapeGroup" mask="url(#mask-132)"></path>
                    </g>
                    <g id="Clipped">
                        <mask id="mask-134" sketch:name="SVGID_1_" fill="white">
                            <use xlink:href="#path-133"></use>
                        </mask>
                        <g id="SVGID_1_"></g>
                        <path d="M46.6,84.4 C45,85 43.4,85.5 41.8,86 L41.8,86 C40.6,89.7 39.5,93.5 38.6,97.4 C40.1,97 41.6,96.6 43.1,96.1 C44.1,92.1 45.2,88.2 46.6,84.4" id="Shape" opacity="0" fill="#000000" sketch:type="MSShapeGroup" mask="url(#mask-134)"></path>
                    </g>
                    <g id="Clipped">
                        <mask id="mask-136" sketch:name="SVGID_1_" fill="white">
                            <use xlink:href="#path-135"></use>
                        </mask>
                        <g id="SVGID_1_"></g>
                        <path d="M28.2,89.7 C26.7,90 25.3,90.3 23.8,90.6 L23.8,90.6 C22.9,94.1 22.1,97.6 21.4,101.2 C22.8,101 24.2,100.7 25.6,100.4 C26.3,96.8 27.2,93.2 28.2,89.7" id="Shape" opacity="0" fill="#000000" sketch:type="MSShapeGroup" mask="url(#mask-136)"></path>
                    </g>
                    <g id="Clipped">
                        <mask id="mask-138" sketch:name="SVGID_1_" fill="white">
                            <use xlink:href="#path-137"></use>
                        </mask>
                        <g id="SVGID_1_"></g>
                        <path d="M41,48.5 L41,48.5 C40.3,49.8 39.6,51 38.9,52.3 C39.8,53.5 40.7,54.7 41.5,55.9 C42.2,54.6 42.9,53.3 43.6,52 C42.7,50.9 41.9,49.7 41,48.5" id="Shape" opacity="0" fill="#000000" sketch:type="MSShapeGroup" mask="url(#mask-138)"></path>
                    </g>
                    <g id="Clipped">
                        <mask id="mask-140" sketch:name="SVGID_1_" fill="white">
                            <use xlink:href="#path-139"></use>
                        </mask>
                        <g id="SVGID_1_"></g>
                        <path d="M51.1,63.5 C50.4,64.9 49.7,66.4 49,67.8 C49.8,69.2 50.6,70.7 51.4,72.1 C52.1,70.6 52.8,69.1 53.5,67.6 C52.7,66.2 51.9,64.8 51.1,63.5" id="Shape" opacity="0" fill="#000000" sketch:type="MSShapeGroup" mask="url(#mask-140)"></path>
                    </g>
                    <g id="Clipped">
                        <mask id="mask-142" sketch:name="SVGID_1_" fill="white">
                            <use xlink:href="#path-141"></use>
                        </mask>
                        <g id="SVGID_1_"></g>
                        <path d="M45.4,41.2 L45.4,41.2 C43.9,43.6 42.4,46.1 41,48.5 C41.9,49.7 42.8,50.8 43.6,52 C45,49.5 46.5,47 48,44.5 C47.2,43.4 46.3,42.3 45.4,41.2" id="Shape" opacity="0" fill="#000000" sketch:type="MSShapeGroup" mask="url(#mask-142)"></path>
                    </g>
                    <g id="Clipped">
                        <mask id="mask-144" sketch:name="SVGID_1_" fill="white">
                            <use xlink:href="#path-143"></use>
                        </mask>
                        <g id="SVGID_1_"></g>
                        <path d="M55.5,55.4 C54,58.1 52.5,60.8 51.1,63.5 C51.9,64.9 52.7,66.3 53.5,67.7 C54.9,64.9 56.3,62.1 57.9,59.3 C57.1,57.9 56.3,56.6 55.5,55.4 L55.5,55.4" id="Shape" opacity="0" fill="#000000" sketch:type="MSShapeGroup" mask="url(#mask-144)"></path>
                    </g>
                    <g id="Clipped">
                        <mask id="mask-146" sketch:name="SVGID_1_" fill="white">
                            <use xlink:href="#path-145"></use>
                        </mask>
                        <g id="SVGID_1_"></g>
                        <path d="M99,0.1 C95,0.1 91,0.3 87.1,0.8 C86.8,1.1 86.4,1.4 86.1,1.6 C85.1,2.4 84,3.3 83,4.2 C81.5,5.5 79.9,6.8 78.4,8.2 C77.4,9.1 76.4,10 75.4,11 C74.4,12 73.4,12.9 72.4,13.9 C64.2,22.1 56.8,31.2 50.3,40.9 C49.5,42.1 48.8,43.3 48,44.5 C46.5,47 45,49.5 43.6,52 C42.9,53.3 42.2,54.6 41.5,55.9 C36.6,65.2 32.6,75 29.5,85.2 C29.1,86.7 28.6,88.1 28.2,89.6 C27.2,93.1 26.4,96.7 25.6,100.4 C25.3,101.8 25,103.2 24.8,104.6 C23.4,112.1 22.6,119.8 22.2,127.5 C22.1,129 22.1,130.5 22.1,132.1 L22.1,135.5 L22.1,136.7 C22.1,138.2 22.1,139.7 22.2,141.2 C22.4,148.4 23.1,155.5 24.2,162.4 C28.8,167.8 33.9,172.6 39.5,176.9 C36,163.7 34.1,149.8 34.1,135.5 L34.1,135.3 C34.1,133.8 34.1,132.4 34.2,130.9 C34.2,129.4 34.3,127.9 34.4,126.5 C34.5,125 34.6,123.5 34.7,122 C35.3,115.1 36.3,108.4 37.7,101.8 C38,100.3 38.4,98.8 38.7,97.4 C39.6,93.5 40.7,89.7 41.9,86 C42.4,84.4 43,82.8 43.5,81.3 C45.2,76.7 47,72.2 49.1,67.8 C49.8,66.3 50.5,64.9 51.2,63.5 C52.6,60.7 54.1,58 55.6,55.4 C56.3,54.1 57.1,52.8 57.9,51.6 C64.4,41 72.2,31.2 81,22.5 C81.5,22 82,21.5 82.4,21.1 C83.4,20.2 84.3,19.2 85.3,18.3 C86.8,16.9 88.3,15.6 89.8,14.3 C90.8,13.4 91.8,12.6 92.9,11.7 C97.8,7.7 102.9,4 108.2,0.6 C105.1,0.2 102.1,0.1 99,0.1" id="Shape" fill="#7AB8F3" sketch:type="MSShapeGroup" mask="url(#mask-146)"></path>
                    </g>
                </g>
            </g>
        </g>
    </g>
</svg>
