<?xml version="1.0" encoding="UTF-8" standalone="no"?>
<svg width="250px" height="250px" viewBox="0 0 250 250" version="1.1" xmlns="http://www.w3.org/2000/svg" xmlns:xlink="http://www.w3.org/1999/xlink" xmlns:sketch="http://www.bohemiancoding.com/sketch/ns">
    <!-- Generator: Sketch 3.2.2 (9983) - http://www.bohemiancoding.com/sketch -->
    <title>gameicon</title>
    <desc>Created with Sketch.</desc>
    <defs></defs>
    <g id="Exportables" stroke="none" stroke-width="1" fill="none" fill-rule="evenodd" sketch:type="MSPage">
        <g id="gameicon" sketch:type="MSArtboardGroup">
            <g id="Controller" sketch:type="MSLayerGroup" transform="translate(0.000000, 44.000000)">
                <g id="Group" sketch:type="MSShapeGroup">
                    <path d="M51.8018018,76.0666667 C35.0225225,76.0666667 21.3963964,62.3701389 21.3963964,45.5041667 C21.3963964,28.6381944 35.0225225,14.9416667 51.8018018,14.9416667 C68.5810811,14.9416667 82.2072072,28.6381944 82.2072072,45.5041667 C82.2072072,62.3701389 68.5810811,76.0666667 51.8018018,76.0666667 M198.198198,79.1229167 L195.045045,75.9534722 L168.018018,48.7868056 L164.864865,45.6173611 L168.018018,42.4479167 L195.045045,15.28125 L198.198198,12.1118056 L201.351351,15.28125 L228.378378,42.4479167 L231.531532,45.6173611 L228.378378,48.7868056 L201.351351,75.9534722 L198.198198,79.1229167 M198.198198,0.226388889 C188.288288,0.226388889 179.166667,3.39583333 171.734234,8.82916667 C164.076577,14.3756944 154.842342,17.2055556 145.382883,17.2055556 L125,17.2055556 L104.617117,17.2055556 C95.1576577,17.2055556 85.9234234,14.4888889 78.2657658,8.82916667 C70.8333333,3.39583333 61.7117117,0.226388889 51.8018018,0.226388889 L49.8873874,0.226388889 C26.3513514,1.24513889 7.31981982,20.8277778 6.75675676,44.5986111 C6.64414414,51.3902778 7.88288288,57.7291667 10.472973,63.5020833 C14.527027,73.0104167 14.9774775,83.6506944 12.1621622,93.6118056 L1.91441441,130.4 C-1.8018018,143.983333 6.08108108,158.019444 19.481982,161.754861 C21.7342342,162.434028 24.0990991,162.660417 26.3513514,162.660417 C37.3873874,162.660417 47.6351351,155.302778 50.7882883,143.983333 L61.1486486,106.515972 C63.8513514,96.8944444 69.5945946,88.1784722 77.7027027,82.4055556 L77.9279279,82.2923611 C85.5855856,76.8590278 94.5945946,73.6895833 104.054054,73.6895833 L125,73.6895833 L146.058559,73.6895833 C155.405405,73.6895833 164.527027,76.8590278 172.184685,82.2923611 L172.40991,82.4055556 C180.518018,88.1784722 186.261261,96.78125 188.963964,106.515972 L199.324324,143.983333 C202.477477,155.189583 212.612613,162.660417 223.761261,162.660417 C226.013514,162.660417 228.265766,162.320833 230.630631,161.754861 C244.144144,158.019444 252.027027,143.870139 248.198198,130.4 L237.95045,93.6118056 C235.135135,83.6506944 235.585586,73.0104167 239.63964,63.5020833 C242.117117,57.7291667 243.468468,51.2770833 243.355856,44.5986111 C242.792793,20.9409722 223.761261,1.35833333 200.225225,0.339583333 C199.436937,0.339583333 198.873874,0.226388889 198.198198,0.226388889" id="Shape" fill="#7AB8F2"></path>
                    <path d="M51.8018018,19.4694444 C37.5,19.4694444 25.9009009,31.1284722 25.9009009,45.5041667 C25.9009009,59.8798611 37.5,71.5388889 51.8018018,71.5388889 C66.1036036,71.5388889 77.7027027,59.8798611 77.7027027,45.5041667 C77.7027027,31.1284722 66.1036036,19.4694444 51.8018018,19.4694444" id="Shape" fill="#3AEC49"></path>
                    <path d="M25.9009009,45.5041667 L25.9009009,45.5041667 C25.9009009,31.1284722 37.5,19.4694444 51.8018018,19.4694444 C66.1036036,19.4694444 77.7027027,31.1284722 77.7027027,45.5041667 L77.7027027,45.5041667 C77.7027027,59.8798611 66.1036036,71.5388889 51.8018018,71.5388889 C37.5,71.5388889 25.9009009,59.8798611 25.9009009,45.5041667 L25.9009009,45.5041667 M51.8018018,14.9416667 C35.0225225,14.9416667 21.3963964,28.6381944 21.3963964,45.5041667 C21.3963964,62.3701389 35.0225225,76.0666667 51.8018018,76.0666667 C68.5810811,76.0666667 82.2072072,62.3701389 82.2072072,45.5041667 C82.2072072,28.6381944 68.5810811,14.9416667 51.8018018,14.9416667" id="Shape" opacity="0" fill="#000000"></path>
                    <path d="M198.198198,18.3375 L171.171171,45.5041667 L198.198198,72.7840278 L225.225225,45.5041667 L198.198198,18.3375" id="Shape" fill="#E46969"></path>
                    <path d="M171.171171,45.5041667 L171.171171,45.5041667 L198.198198,18.3375 L225.225225,45.5041667 L198.198198,72.6708333 L171.171171,45.5041667 M198.198198,11.9986111 L195.045045,15.1680556 L168.018018,42.3347222 L164.864865,45.5041667 L168.018018,48.6736111 L195.045045,75.8402778 L198.198198,79.0097222 L201.351351,75.8402778 L228.378378,48.6736111 L231.531532,45.5041667 L228.378378,42.3347222 L201.351351,15.1680556 L198.198198,11.9986111" id="Shape" opacity="0" fill="#000000"></path>
                </g>
            </g>
        </g>
    </g>
</svg>
