<?xml version="1.0" encoding="UTF-8" standalone="no"?>
<svg width="250px" height="250px" viewBox="0 0 250 250" version="1.1" xmlns="http://www.w3.org/2000/svg" xmlns:xlink="http://www.w3.org/1999/xlink" xmlns:sketch="http://www.bohemiancoding.com/sketch/ns">
    <!-- Generator: Sketch 3.2.2 (9983) - http://www.bohemiancoding.com/sketch -->
    <title>javaicon</title>
    <desc>Created with Sketch.</desc>
    <defs></defs>
    <g id="Exportables" stroke="none" stroke-width="1" fill="none" fill-rule="evenodd" sketch:type="MSPage">
        <g id="javaicon" sketch:type="MSArtboardGroup">
            <g id="Java" sketch:type="MSLayerGroup" transform="translate(0.000000, 10.000000)">
                <g id="Group" sketch:type="MSShapeGroup">
                    <path d="M229.73251,125.313901 C226.851852,126.44843 223.868313,127.479821 220.987654,128.408072 L220.987654,128.408072 C223.868313,127.479821 226.748971,126.44843 229.73251,125.313901 L229.73251,125.313901 M116.975309,114.587444 L116.152263,114.587444 L116.975309,114.587444 C149.588477,114.587444 181.069959,119.434978 210.802469,128.511211 L210.802469,128.511211 C181.069959,119.434978 149.588477,114.587444 116.975309,114.587444 M118.004115,100.457399 C77.5720165,100.457399 38.7860082,107.986547 3.18930041,121.600897 L5.34979424,122.426009 C9.56790123,123.973094 13.7860082,125.520179 18.0041152,126.860987 C49.8971193,116.650224 83.2304527,111.493274 116.975309,111.493274 C150.823045,111.493274 184.053498,116.650224 215.946502,126.964126 C220.164609,125.623318 224.382716,124.076233 228.600823,122.529148 L231.27572,121.497758 L231.378601,121.188341 C196.193416,107.780269 157.921811,100.457399 118.004115,100.457399" id="Shape" fill="#3AEC49"></path>
                    <path d="M18.0041152,130.161435 L18.0041152,130.161435 C49.1769547,140.269058 82.5102881,145.735426 116.975309,145.735426 C151.54321,145.735426 184.773663,140.269058 215.946502,130.161435 L215.946502,130.161435 C184.773663,140.269058 151.440329,145.735426 116.975309,145.735426 C82.4074074,145.735426 49.1769547,140.269058 18.0041152,130.161435 M116.975309,114.587444 L116.152263,114.587444 C83.8477366,114.690583 52.6748971,119.538117 23.2510288,128.511211 C53.4979424,137.896861 84.9794239,142.538117 117.078189,142.538117 C149.074074,142.538117 180.555556,137.793722 210.90535,128.511211 C181.069959,119.434978 149.588477,114.587444 116.975309,114.587444" id="Shape" fill="#E46969"></path>
                    <path d="M220.987654,128.511211 C219.341564,129.026906 217.695473,129.64574 216.049383,130.161435 L216.049383,130.161435 C217.592593,129.64574 219.238683,129.026906 220.987654,128.511211 L220.987654,128.511211 M116.975309,111.390135 C83.127572,111.390135 49.8971193,116.547085 18.0041152,126.757848 C19.7530864,127.376682 21.5020576,127.892377 23.2510288,128.408072 C52.6748971,119.434978 83.8477366,114.587444 116.152263,114.484305 L116.975309,114.484305 C149.588477,114.484305 181.069959,119.331839 210.802469,128.408072 C212.55144,127.892377 214.300412,127.273543 216.049383,126.757848 C184.053498,116.650224 150.823045,111.390135 116.975309,111.390135" id="Shape" opacity="0" fill="#000000"></path>
                    <path d="M116.152263,114.587444 C83.8477366,114.690583 52.6748971,119.538117 23.2510288,128.511211 L23.2510288,128.511211 C52.5720165,119.538117 83.744856,114.690583 116.152263,114.587444" id="Shape" fill="#E46969"></path>
                    <path d="M231.378601,134.90583 C230.864198,137.381166 230.349794,139.753363 229.73251,142.125561 C236.934156,145.32287 241.975309,152.542601 241.975309,161 C241.975309,172.345291 232.716049,181.627803 221.399177,181.627803 C218.209877,181.627803 215.123457,180.90583 212.44856,179.565022 C211.00823,181.627803 209.567901,183.587444 208.024691,185.547085 C212.037037,187.713004 216.563786,188.950673 221.399177,188.950673 C236.728395,188.950673 249.279835,176.470852 249.279835,161 C249.279835,149.035874 241.872428,138.928251 231.378601,134.90583" id="Shape" fill="#3AEC49"></path>
                    <path d="M4.218107,125.313901 C10.5967078,182.040359 58.6419753,226.080717 116.975309,226.080717 C175.308642,226.080717 223.251029,182.040359 229.73251,125.313901 C226.851852,126.44843 223.868313,127.479821 220.987654,128.408072 C219.341564,128.923767 217.695473,129.542601 216.049383,130.058296 L216.049383,130.058296 C184.876543,140.165919 151.54321,145.632287 117.078189,145.632287 C82.5102881,145.632287 49.2798354,140.165919 18.1069959,130.058296 C13.3744856,128.61435 8.74485597,127.067265 4.218107,125.313901" id="Shape" fill="#7AB8F2"></path>
                    <path d="M116.975309,226.183857 C58.6419753,226.183857 10.6995885,182.143498 4.218107,125.41704 L4.218107,125.41704 C8.74485597,127.067265 13.2716049,128.717489 17.9012346,130.161435 C49.0740741,140.269058 82.4074074,145.735426 116.872428,145.735426 C151.440329,145.735426 184.670782,140.269058 215.843621,130.161435 L215.843621,130.161435 C217.489712,129.64574 219.135802,129.026906 220.781893,128.511211 C223.765432,127.479821 226.646091,126.44843 229.526749,125.41704 L229.526749,125.41704 C223.251029,182.040359 175.308642,226.183857 116.975309,226.183857 M0.514403292,120.569507 L1.13168724,125.623318 C4.32098765,153.986547 17.7983539,180.080717 39.0946502,199.264574 C60.4938272,218.55157 88.1687243,229.174888 116.975309,229.174888 C145.781893,229.174888 173.45679,218.55157 194.855967,199.264574 C199.588477,194.932735 204.012346,190.29148 208.024691,185.340807 C209.567901,183.381166 211.00823,181.421525 212.44856,179.358744 C220.37037,168.013453 226.234568,155.327354 229.73251,141.919283 C230.349794,139.547085 230.864198,137.071749 231.378601,134.699552 C231.995885,131.70852 232.407407,128.61435 232.81893,125.520179 L233.436214,120.466368 L231.378601,121.29148 L228.703704,122.32287 C224.485597,123.869955 220.26749,125.41704 216.049383,126.757848 C214.300412,127.376682 212.55144,127.892377 210.802469,128.408072 L210.802469,128.408072 C180.555556,137.793722 149.074074,142.434978 116.975309,142.434978 C84.9794239,142.434978 53.4979424,137.690583 23.1481481,128.408072 L23.1481481,128.408072 C21.399177,127.892377 19.6502058,127.273543 17.9012346,126.757848 C13.6831276,125.41704 9.46502058,123.869955 5.24691358,122.32287 L3.08641975,121.497758 L0.514403292,120.569507" id="Shape" opacity="0" fill="#000000"></path>
                    <path d="M4.218107,125.313901 C10.5967078,182.040359 58.6419753,226.080717 116.975309,226.080717 C175.308642,226.080717 223.251029,182.040359 229.73251,125.313901 L229.73251,125.313901 C223.353909,182.040359 175.308642,226.080717 116.975309,226.080717 C58.6419753,226.183857 10.6995885,182.040359 4.218107,125.313901 L4.218107,125.313901" id="Shape" fill="#7AB8F2"></path>
                    <path d="M71.9135802,3.50672646 C70.8847737,3.50672646 69.8559671,4.02242152 69.3415638,4.95067265 C68.4156379,6.39461883 68.8271605,8.35426009 70.2674897,9.28251121 C73.5596708,11.4484305 75.5144033,13.6143498 76.7489712,15.573991 C77.9835391,17.6367713 78.3950617,19.5964126 78.3950617,21.8654709 C78.3950617,24.1345291 77.8806584,26.5067265 77.0576132,29.1883408 C75.8230453,33.2107623 73.8683128,37.5426009 72.1193416,42.1838565 C70.3703704,46.8251121 68.9300412,51.7757848 68.9300412,57.0358744 C68.9300412,60.6457399 69.6502058,64.3587444 71.399177,68.0717489 C73.1481481,71.7847534 76.0288066,75.3946188 80.0411523,78.9013453 C80.6584362,79.4170404 81.3786008,79.6233184 82.0987654,79.6233184 C82.9218107,79.6233184 83.8477366,79.2107623 84.4650206,78.5919283 C85.5967078,77.2511211 85.4938272,75.2914798 84.1563786,74.1569507 C80.6584362,71.0627803 78.3950617,68.1748879 77.0576132,65.2869955 C75.7201646,62.5022422 75.2057613,59.7174888 75.2057613,56.9327354 C75.2057613,54.2511211 75.7201646,51.4663677 76.5432099,48.5784753 C77.7777778,44.2466368 79.7325103,39.9147982 81.4814815,35.4798206 C82.3045267,33.2107623 83.127572,31.044843 83.744856,28.7757848 C84.3621399,26.5067265 84.7736626,24.1345291 84.7736626,21.7623318 C84.7736626,18.5650224 84.0534979,15.367713 82.3045267,12.2735426 C80.5555556,9.28251121 77.7777778,6.49775785 73.8683128,3.91928251 C73.0452675,3.60986547 72.5308642,3.50672646 71.9135802,3.50672646" id="Shape" fill="#E46969"></path>
                    <path d="M116.666667,0 C115.843621,0 115.020576,0.30941704 114.506173,0.928251121 C113.271605,2.16591928 113.271605,4.12556054 114.506173,5.3632287 C116.666667,7.52914798 118.106996,9.59192825 119.032922,11.4484305 C119.855967,13.3049327 120.26749,14.955157 120.26749,16.7085202 C120.26749,18.0493274 120.061728,19.2869955 119.650206,20.7309417 C118.930041,23.103139 117.592593,25.6816143 116.049383,28.3632287 C113.580247,32.3856502 110.390947,36.6143498 107.81893,41.3587444 C106.481481,43.7309417 105.349794,46.206278 104.423868,48.7847534 C103.600823,51.4663677 102.983539,54.2511211 102.983539,57.2421525 C102.983539,60.1300448 103.497942,63.1210762 104.62963,66.2152466 C105.761317,69.309417 107.510288,72.5067265 109.979424,75.7040359 C110.596708,76.529148 111.522634,76.941704 112.44856,76.941704 C113.065844,76.941704 113.786008,76.735426 114.300412,76.32287 C115.63786,75.2914798 115.946502,73.3318386 114.917695,71.8878924 C112.757202,69 111.316872,66.4215247 110.493827,64.0493274 C109.567901,61.573991 109.259259,59.4080717 109.259259,57.2421525 C109.259259,53.838565 110.185185,50.6412556 111.625514,47.4439462 C113.888889,42.5964126 117.386831,37.8520179 120.576132,32.9013453 C122.119342,30.426009 123.559671,27.9506726 124.691358,25.2690583 C125.823045,22.5874439 126.54321,19.8026906 126.54321,16.8116592 C126.54321,14.2331839 126.028807,11.5515695 124.691358,8.97309417 C123.45679,6.29147982 121.604938,3.71300448 118.930041,1.13452915 C118.209877,0.30941704 117.386831,0 116.666667,0" id="Shape" fill="#E46969"></path>
                    <path d="M162.345679,4.02242152 C161.728395,4.02242152 161.111111,4.22869955 160.596708,4.53811659 C159.156379,5.56950673 158.847737,7.52914798 159.876543,8.86995516 C161.316872,10.9327354 162.242798,12.7892377 162.860082,14.4394619 C163.477366,16.0896861 163.683128,17.6367713 163.683128,18.9775785 C163.683128,20.5246637 163.374486,21.9686099 162.860082,23.4125561 C161.934156,25.9910314 160.082305,28.5695067 157.716049,31.1479821 C154.218107,35.1704036 149.691358,39.2959641 145.987654,44.1434978 C144.135802,46.6188341 142.386831,49.3004484 141.152263,52.1883408 C139.917695,55.1793722 139.09465,58.4798206 139.09465,61.9865471 C139.09465,66.6278027 140.329218,71.5784753 143.209877,77.044843 C143.72428,78.0762332 144.855967,78.6950673 145.987654,78.6950673 C146.502058,78.6950673 146.91358,78.5919283 147.427984,78.3856502 C148.971193,77.5605381 149.588477,75.7040359 148.765432,74.1569507 C146.296296,69.4125561 145.37037,65.3901345 145.37037,61.8834081 C145.37037,59.8206278 145.679012,57.9641256 146.296296,56.1076233 C147.325103,52.9103139 149.176955,50.0224215 151.440329,47.1345291 C154.835391,42.8026906 159.259259,38.7802691 163.065844,34.3452915 C164.917695,32.1793722 166.666667,29.8071749 167.901235,27.2286996 C169.135802,24.6502242 169.958848,21.7623318 169.958848,18.6681614 C169.958848,16.5022422 169.547325,14.3363229 168.72428,11.9641256 C167.901235,9.69506726 166.666667,7.32286996 165.020576,4.95067265 C164.300412,4.43497758 163.271605,4.02242152 162.345679,4.02242152" id="Shape" fill="#E46969"></path>
                </g>
            </g>
        </g>
    </g>
</svg>
